<svg xmlns="http://www.w3.org/2000/svg" width="512" height="512" viewBox="0 0 512 512">
<g>
<path d="M 336.99 177.28 C335.74,178.35 333.29,179.00 330.51,179.00 L 326.04 179.00 L 326.64 174.59 C327.84,165.88 320.32,147.62 310.24,134.75 C300.06,121.75 283.31,110.73 265.92,105.60 C256.84,102.91 258.46,102.31 270.22,104.01 C296.04,107.75 320.84,126.02 332.08,149.58 C338.78,163.63 340.65,174.15 336.99,177.28 Z" fill="rgb(12,224,152)"/>
<path d="M 429.08 501.24 C425.35,503.76 422.25,503.41 418.92,500.08 C415.34,496.50 415.24,494.06 418.50,490.18 C419.88,488.55 421.00,486.94 421.00,486.61 C421.00,486.27 404.10,486.00 383.45,486.00 L 345.90 486.00 L 343.45 483.35 C340.26,479.91 340.27,475.64 343.45,472.45 L 345.91 470.00 L 383.45 470.00 C404.10,470.00 421.00,469.69 421.00,469.31 C421.00,468.94 420.02,467.59 418.83,466.32 C415.73,463.02 415.97,458.28 419.39,455.34 C424.27,451.14 426.57,452.03 439.34,463.03 C450.96,473.04 452.81,475.63 451.65,480.25 C451.14,482.30 435.28,497.05 429.08,501.24 ZM 422.09 500.16 C423.34,502.50 426.13,501.50 431.05,496.96 C433.34,494.84 436.75,492.08 438.63,490.81 C440.51,489.54 442.31,487.48 442.64,486.24 C442.96,485.00 444.52,483.05 446.11,481.92 C449.61,479.43 450.18,474.38 447.09,473.22 C445.11,472.47 436.87,465.58 429.15,458.21 C426.68,455.85 423.97,454.05 423.12,454.22 C422.28,454.38 421.02,456.46 420.33,458.84 C419.15,462.93 419.21,463.30 421.54,465.63 C422.89,466.98 424.00,468.47 424.00,468.94 C424.00,470.83 416.92,471.19 382.92,471.05 C354.75,470.93 347.12,471.17 346.30,472.20 C344.16,474.92 343.91,479.03 345.70,482.08 L 347.47 485.06 L 383.88 484.96 C415.40,484.88 420.50,485.07 421.83,486.40 C423.21,487.78 423.19,488.14 421.56,489.93 C420.26,491.37 419.96,492.69 420.46,494.71 C420.85,496.24 421.17,497.73 421.18,498.00 C421.19,498.27 421.60,499.25 422.09,500.16 ZM 176.97 162.33 C176.94,163.53 174.00,167.90 174.00,166.75 C174.00,166.40 175.18,162.83 176.62,158.81 C182.72,141.80 194.14,127.34 209.50,117.17 C216.89,112.28 229.85,106.48 230.89,107.61 C231.22,107.97 230.91,108.49 230.18,108.74 C228.23,109.44 219.55,114.07 211.00,118.97 C205.81,121.95 201.65,125.39 197.50,130.13 C194.20,133.90 189.81,138.88 187.75,141.20 C185.69,143.51 184.00,145.98 184.00,146.69 C184.00,147.39 182.43,150.94 180.50,154.57 C178.57,158.20 176.99,161.69 176.97,162.33 ZM 240.37 105.49 C239.97,106.52 238.46,106.98 235.64,106.94 C231.35,106.87 232.22,106.09 238.22,104.64 C240.40,104.11 240.83,104.28 240.37,105.49 ZM 254.00 104.00 C254.00,104.55 252.45,105.00 250.56,105.00 C248.67,105.00 246.84,104.55 246.50,104.00 C246.13,103.40 247.49,103.00 249.94,103.00 C252.17,103.00 254.00,103.45 254.00,104.00 Z" fill="rgb(120,239,196)"/>
<path d="M 494.88 206.23 C494.15,207.59 492.67,208.00 488.46,208.00 L 483.00 208.00 L 483.00 204.25 C483.00,202.18 482.16,197.56 481.14,193.98 C476.22,176.80 466.08,161.83 451.83,150.76 C443.93,144.62 432.81,138.01 430.38,138.00 C429.76,138.00 426.84,136.87 423.88,135.49 L 418.50 132.98 L 424.00 133.57 C448.14,136.18 471.29,151.22 484.28,172.75 C491.43,184.59 497.01,202.24 494.88,206.23 Z" fill="rgb(69,167,247)"/>
<path d="M 408.00 312.04 C408.00,314.01 403.18,312.91 400.64,310.36 C398.25,307.98 397.85,307.21 398.07,305.44 C398.11,305.13 396.09,302.48 393.59,299.55 C388.53,293.64 386.65,289.68 387.54,286.87 C388.24,284.68 392.93,284.32 395.97,286.21 C398.55,287.83 399.20,286.96 399.76,281.19 C400.07,277.93 399.70,275.33 398.65,273.29 C397.79,271.62 397.36,269.97 397.70,269.63 C398.70,268.63 395.85,260.73 393.51,258.00 C392.33,256.62 390.65,254.35 389.78,252.94 C388.85,251.43 386.55,249.88 384.21,249.18 C381.28,248.30 380.04,247.31 379.59,245.49 C379.10,243.55 378.32,243.00 376.04,243.00 C374.43,243.00 372.88,242.61 372.59,242.14 C372.30,241.67 368.95,240.53 365.16,239.61 C359.62,238.26 357.32,238.14 353.46,239.01 C350.82,239.60 347.42,239.81 345.91,239.48 C344.11,239.08 341.77,239.59 339.12,240.94 C336.90,242.07 334.44,243.00 333.66,243.00 C332.88,243.00 331.69,243.67 331.01,244.49 C330.23,245.43 328.90,245.76 327.39,245.38 C325.65,244.95 325.00,245.20 325.00,246.31 C325.00,247.15 323.47,248.78 321.59,249.94 C319.13,251.46 317.00,254.41 313.90,260.58 C311.54,265.28 309.25,269.35 308.81,269.62 C308.36,269.89 308.00,271.43 308.00,273.02 C308.00,274.87 307.30,276.31 306.07,276.96 C301.07,279.64 295.40,276.78 297.87,272.83 C298.56,271.73 298.86,269.62 298.53,268.12 C298.07,266.04 298.52,264.86 300.47,263.03 C301.86,261.72 303.00,260.05 303.00,259.33 C303.00,258.60 303.41,258.00 303.91,258.00 C304.41,258.00 305.85,255.87 307.11,253.26 C310.03,247.24 314.46,242.81 320.79,239.61 C323.53,238.22 326.41,236.44 327.19,235.67 C330.55,232.31 335.45,230.68 345.50,229.57 C347.70,229.33 351.60,228.82 354.17,228.44 C357.90,227.89 359.76,228.19 363.33,229.92 C366.10,231.26 368.72,231.86 370.20,231.49 C371.77,231.09 373.43,231.55 375.07,232.84 C376.44,233.92 378.88,234.96 380.49,235.15 C382.10,235.34 384.51,236.51 385.85,237.75 C387.20,238.99 388.90,240.00 389.65,240.00 C390.42,240.00 391.00,241.06 391.00,242.50 C391.00,245.67 394.28,249.00 397.39,249.00 C399.19,249.00 400.20,249.93 401.45,252.75 C404.11,258.73 406.22,262.44 407.40,263.21 C408.01,263.61 408.47,266.15 408.43,268.86 C408.38,272.20 408.73,273.66 409.51,273.36 C410.84,272.85 413.00,279.28 413.00,283.75 C413.00,287.46 416.77,290.35 420.41,289.43 C423.03,288.77 425.00,291.08 425.00,294.82 C425.00,296.52 419.26,302.00 417.48,302.00 C416.46,302.00 408.00,310.96 408.00,312.04 ZM 314.69 252.36 C315.82,253.49 317.00,253.05 317.00,251.50 C317.00,250.68 316.58,250.00 316.06,250.00 C314.80,250.00 313.89,251.56 314.69,252.36 ZM 307.00 260.50 C307.00,261.42 307.48,262.01 308.08,261.81 C308.67,261.61 309.15,261.02 309.15,260.50 C309.15,259.98 308.67,259.39 308.08,259.19 C307.48,258.99 307.00,259.58 307.00,260.50 Z" fill="rgb(252,99,111)"/>
<path d="M 336.99 177.28 C338.80,175.73 339.26,172.37 338.45,167.66 C339.13,170.20 339.78,172.00 340.05,172.00 C340.40,172.00 341.18,170.91 341.78,169.58 C342.39,168.25 345.94,163.92 349.67,159.97 C366.52,142.10 387.34,132.88 411.39,132.63 C428.10,132.46 442.27,136.27 456.25,144.70 C457.78,145.62 459.35,146.68 460.93,147.83 C449.88,140.06 437.09,134.99 424.00,133.57 L 418.50 132.98 L 423.88 135.49 C426.84,136.87 429.76,138.00 430.38,138.00 C432.81,138.01 443.93,144.62 451.83,150.76 C466.08,161.83 476.22,176.80 481.14,193.98 C482.16,197.56 483.00,202.18 483.00,204.25 L 483.00 207.72 C472.30,207.97 451.76,208.00 412.02,208.00 C348.94,208.00 329.95,207.72 329.37,206.79 C327.71,204.10 329.46,195.34 333.88,184.25 L 335.97 179.00 L 330.51 179.00 C333.29,179.00 335.74,178.35 336.99,177.28 ZM 336.27 159.62 C335.20,156.55 333.80,153.18 332.08,149.58 C331.30,147.94 330.45,146.33 329.54,144.74 C332.33,149.48 334.60,154.46 336.27,159.62 Z" fill="rgb(96,182,253)"/>
<path d="M 176.97 162.33 C176.99,161.69 178.57,158.20 180.50,154.57 C182.43,150.94 184.00,147.39 184.00,146.69 C184.00,145.98 185.69,143.51 187.75,141.20 C189.81,138.88 194.20,133.90 197.50,130.13 C201.65,125.39 205.81,121.95 211.00,118.97 C219.55,114.07 228.23,109.44 230.18,108.74 C230.91,108.49 231.22,107.97 230.89,107.61 C230.62,107.31 229.51,107.50 227.90,108.02 C229.58,107.42 231.29,106.87 233.01,106.37 C232.74,106.72 233.62,106.91 235.64,106.94 C238.46,106.98 239.97,106.52 240.37,105.49 C240.53,105.06 240.58,104.76 240.48,104.58 C242.47,104.19 244.48,103.88 246.50,103.63 C246.42,103.74 246.42,103.87 246.50,104.00 C246.84,104.55 248.67,105.00 250.56,105.00 C252.45,105.00 254.00,104.55 254.00,104.00 C254.00,103.63 253.20,103.31 252.00,103.14 C254.87,102.98 257.77,102.95 260.68,103.08 C259.08,103.23 260.79,104.08 265.92,105.60 C283.31,110.73 300.06,121.75 310.24,134.75 C320.32,147.62 327.84,165.88 326.64,174.59 L 326.08 178.70 L 325.27 178.65 C319.45,178.29 284.01,178.00 246.52,178.00 L 178.35 178.00 L 176.17 175.69 C174.27,173.66 173.66,170.95 174.36,166.80 C175.15,166.13 176.94,163.26 176.97,162.33 ZM 422.09 500.16 C421.60,499.25 421.19,498.27 421.18,498.00 C421.17,497.73 420.85,496.24 420.46,494.71 C419.96,492.69 420.26,491.37 421.56,489.93 C423.19,488.14 423.21,487.78 421.83,486.40 C420.50,485.07 415.40,484.88 383.88,484.96 L 347.47 485.06 L 345.70 482.08 C343.91,479.03 344.16,474.92 346.30,472.20 C347.12,471.17 354.75,470.93 382.92,471.05 C416.92,471.19 424.00,470.83 424.00,468.94 C424.00,468.47 422.89,466.98 421.54,465.63 C419.21,463.30 419.15,462.93 420.33,458.84 C421.02,456.46 422.28,454.38 423.12,454.22 C423.97,454.05 426.68,455.85 429.15,458.21 C436.87,465.58 445.11,472.47 447.09,473.22 C450.18,474.38 449.61,479.43 446.11,481.92 C444.52,483.05 442.96,485.00 442.64,486.24 C442.31,487.48 440.51,489.54 438.63,490.81 C436.75,492.08 433.34,494.84 431.05,496.96 C426.13,501.50 423.34,502.50 422.09,500.16 ZM 331.03 179.00 L 335.97 179.00 L 335.85 179.29 ZM 336.27 159.62 C334.60,154.47 332.33,149.48 329.54,144.74 L 329.54 144.74 C328.37,142.70 327.10,140.72 325.74,138.78 C330.34,145.26 333.96,152.35 336.34,159.83 C336.32,159.76 336.29,159.69 336.27,159.62 ZM 223.55 109.71 C219.90,111.28 215.50,113.50 211.85,115.69 C215.58,113.41 219.49,111.40 223.55,109.71 Z" fill="rgb(108,244,194)"/>
<path d="M 494.88 206.23 C497.01,202.24 491.43,184.59 484.28,172.75 C478.33,162.89 470.25,154.40 460.93,147.83 C459.35,146.68 457.78,145.62 456.25,144.70 C442.27,136.27 428.10,132.46 411.39,132.63 C387.34,132.88 366.52,142.10 349.67,159.97 C345.94,163.92 342.39,168.25 341.78,169.58 C341.68,169.80 341.58,170.01 341.47,170.21 C341.81,169.31 341.76,168.91 341.35,169.31 C340.94,169.72 339.99,169.04 339.23,167.78 C338.35,166.31 338.06,166.15 338.43,167.33 C338.58,167.82 338.72,168.43 338.83,169.00 C338.70,168.59 338.57,168.14 338.45,167.66 C338.05,165.36 337.34,162.73 336.34,159.83 C333.96,152.35 330.34,145.26 325.74,138.78 L 325.74 138.78 C312.93,120.57 291.93,107.15 270.22,104.01 C265.11,103.27 261.91,102.97 260.68,103.08 C257.77,102.95 254.87,102.98 252.00,103.14 C251.40,103.05 250.69,103.00 249.94,103.00 C248.04,103.00 246.79,103.24 246.50,103.63 C244.48,103.88 242.47,104.19 240.48,104.58 C240.30,104.25 239.62,104.30 238.22,104.64 C235.05,105.41 233.31,105.99 233.01,106.37 C231.29,106.87 229.58,107.42 227.90,108.02 C226.69,108.41 225.20,108.99 223.55,109.71 C219.49,111.40 215.58,113.41 211.85,115.69 C211.02,116.19 210.23,116.68 209.50,117.17 C194.14,127.34 182.72,141.80 176.62,158.81 C175.18,162.83 174.00,166.40 174.00,166.75 C174.00,167.00 174.14,166.99 174.36,166.80 C173.66,170.95 174.27,173.66 176.17,175.69 L 178.35 178.00 L 246.52 178.00 C284.01,178.00 319.45,178.29 325.27,178.65 L 326.08 178.70 L 326.04 179.00 L 331.03 179.00 L 335.85 179.29 L 333.88 184.25 C330.58,192.54 328.76,199.52 328.75,203.64 C328.57,203.45 328.23,203.20 327.75,202.92 C326.79,202.36 326.00,200.79 326.00,199.44 C326.00,198.08 325.44,196.07 324.75,194.97 C323.67,193.24 323.85,192.68 326.14,190.74 C331.78,185.95 330.04,181.31 323.03,182.49 C320.35,182.95 319.00,182.81 319.00,182.07 C319.00,181.28 301.09,180.98 255.42,181.01 C198.66,181.05 191.58,181.23 189.38,182.67 C187.42,183.96 186.42,184.06 184.46,183.16 C182.48,182.26 182.00,182.32 182.00,183.46 C182.00,184.24 182.39,185.12 182.87,185.42 C183.35,185.72 184.01,187.32 184.35,188.98 C184.68,190.64 185.86,194.00 186.97,196.45 C189.80,202.65 189.59,205.44 186.10,207.93 C183.22,209.98 182.50,210.00 100.22,210.00 C93.08,210.00 86.53,210.00 80.52,210.01 C25.71,210.04 16.00,210.05 14.59,206.63 C14.29,205.90 14.37,205.00 14.46,203.92 C14.51,203.36 14.57,202.76 14.58,202.10 C14.68,195.90 16.30,188.48 18.78,182.86 C19.91,180.30 20.99,177.15 21.17,175.86 C21.35,174.56 22.28,172.60 23.23,171.50 C38.31,154.01 39.07,153.00 37.11,153.00 C36.02,153.00 34.84,152.55 34.49,151.99 C33.54,150.45 34.87,147.26 36.76,146.54 C38.81,145.75 41.12,148.53 40.27,150.75 C39.85,151.84 40.62,151.60 42.83,149.96 C44.58,148.68 46.00,147.34 46.00,147.00 C46.00,146.65 47.91,145.32 50.25,144.04 C52.59,142.75 55.28,141.04 56.22,140.22 C57.17,139.40 61.67,137.22 66.22,135.36 C70.78,133.50 75.03,131.27 75.68,130.39 C76.59,129.17 77.80,128.96 80.93,129.49 C84.24,130.05 85.00,129.89 85.00,128.62 C85.00,127.60 85.60,127.25 86.75,127.60 C88.20,128.05 88.15,127.86 86.50,126.53 C82.63,123.42 76.92,120.02 74.58,119.43 C71.39,118.63 58.94,103.53 57.78,99.06 C54.68,87.12 54.55,80.99 57.09,66.39 C58.09,60.69 58.74,59.57 65.18,52.58 C72.95,44.15 77.35,41.21 87.00,37.97 C92.59,36.10 94.76,35.89 102.50,36.46 C114.24,37.33 125.48,40.65 127.13,43.74 C127.80,45.00 129.60,46.82 131.13,47.78 C135.64,50.64 142.00,60.38 143.18,66.26 C144.81,74.34 145.25,87.19 144.11,93.35 C143.55,96.41 141.93,100.62 140.52,102.71 C139.11,104.79 137.03,107.94 135.90,109.71 C134.78,111.47 133.04,113.17 132.04,113.49 C131.03,113.81 130.01,114.86 129.75,115.83 C129.50,116.80 125.96,119.58 121.90,122.00 C116.03,125.49 113.31,126.49 108.75,126.82 C101.26,127.37 101.26,129.20 108.75,128.95 C111.91,128.85 115.18,129.00 116.00,129.29 C126.49,132.94 132.54,133.88 133.19,131.94 C133.73,130.31 136.84,131.94 137.57,134.22 C138.03,135.66 138.44,135.90 138.98,135.03 C140.22,133.02 143.50,134.27 143.53,136.77 C143.57,140.31 147.48,143.50 151.78,143.50 C154.78,143.50 155.56,143.90 155.80,145.57 C155.96,146.71 157.08,148.58 158.30,149.73 C161.75,153.01 166.63,158.03 168.41,160.13 C169.97,161.96 170.12,161.97 171.92,160.27 C174.42,157.90 177.00,151.49 177.00,147.62 C177.00,145.64 177.69,144.05 178.86,143.32 C181.41,141.73 185.25,134.08 184.66,131.79 C184.28,130.36 184.84,129.78 187.05,129.34 C188.73,129.00 192.74,126.05 196.71,122.21 C203.05,116.09 210.45,111.00 213.02,111.00 C213.63,111.00 215.62,109.87 217.43,108.49 C220.95,105.80 230.20,103.24 246.50,100.44 C257.38,98.57 257.28,97.78 246.00,96.54 C240.72,95.96 238.38,95.06 233.50,91.76 C224.45,85.63 219.30,80.25 214.94,72.38 L 211.00 65.25 L 211.00 39.16 L 214.75 32.32 C221.38,20.22 234.61,9.44 245.16,7.55 C254.70,5.84 258.80,5.91 267.36,7.93 C277.01,10.22 279.00,11.41 288.63,20.68 C298.42,30.11 300.28,34.98 300.81,52.55 L 301.24 66.61 L 297.94 72.55 C294.54,78.69 291.33,82.20 282.19,89.74 C278.19,93.04 275.59,94.34 271.69,95.00 C266.21,95.92 257.80,98.72 259.50,99.06 C260.05,99.17 261.43,99.36 262.57,99.48 C267.58,100.03 272.60,101.26 273.76,102.22 C274.45,102.79 278.35,103.32 282.41,103.38 C286.48,103.45 289.65,103.75 289.47,104.05 C288.76,105.20 290.78,106.64 299.00,110.87 C308.66,115.83 314.19,119.48 313.34,120.32 C313.02,120.64 313.93,121.20 315.35,121.55 C317.11,121.99 318.34,123.30 319.17,125.60 C319.85,127.47 320.74,129.00 321.15,129.00 C322.37,129.00 327.99,135.39 328.00,136.77 C328.00,137.48 329.13,138.48 330.51,139.00 C331.89,139.53 332.92,140.30 332.79,140.73 C332.67,141.15 333.08,142.41 333.70,143.52 C334.32,144.63 335.15,147.33 335.54,149.52 C336.82,156.57 338.33,158.51 342.41,158.40 C345.07,158.33 347.09,157.35 350.02,154.72 C354.38,150.80 354.74,149.86 352.51,148.01 C350.05,145.96 351.87,144.92 356.82,145.53 C362.28,146.20 368.00,143.41 368.00,140.07 C368.00,137.20 371.62,135.06 375.44,135.68 C377.98,136.10 379.28,135.65 381.51,133.58 C385.80,129.60 392.13,128.70 405.29,130.18 C408.48,130.54 412.42,130.45 414.04,129.99 C415.67,129.52 417.00,129.49 417.00,129.91 C417.00,131.38 424.53,130.98 429.41,129.24 C433.18,127.91 434.43,127.79 434.75,128.75 C435.00,129.51 436.07,129.77 437.49,129.41 C440.42,128.68 444.00,130.53 444.00,132.79 C444.01,134.06 444.89,134.52 447.46,134.57 C450.14,134.63 452.04,135.69 455.91,139.32 C458.66,141.90 461.55,144.00 462.33,144.00 C463.12,144.00 464.32,144.68 465.00,145.50 C465.68,146.32 466.98,147.00 467.88,147.00 C470.39,147.00 477.20,153.31 476.55,155.03 C476.24,155.87 477.31,157.90 479.05,159.75 C482.14,163.04 485.00,164.01 485.00,161.78 C485.00,161.11 486.01,161.57 487.25,162.81 C488.99,164.54 489.46,166.07 489.33,169.53 C489.19,173.03 489.57,174.24 491.07,175.04 C494.66,176.96 495.89,181.19 496.15,192.60 C496.32,199.82 495.99,204.26 495.17,205.75 L 493.93 208.00 L 488.46 208.00 C492.67,208.00 494.15,207.59 494.88,206.23 ZM 18.56 205.78 L 20.12 208.01 L 101.29 207.76 L 182.45 207.50 L 183.40 204.79 C184.09,202.84 183.86,200.19 182.59,195.29 C181.63,191.56 180.36,186.25 179.78,183.50 C179.20,180.75 177.66,177.35 176.36,175.95 C175.06,174.54 174.00,172.85 174.00,172.20 C174.00,171.54 173.61,171.00 173.14,171.00 C172.24,171.00 165.02,160.77 163.77,157.73 C163.37,156.75 162.25,155.67 161.27,155.33 C160.30,154.99 158.38,153.68 157.00,152.43 C155.62,151.17 153.84,150.00 153.04,149.82 C152.23,149.64 150.43,148.49 149.04,147.25 C145.09,143.73 134.24,138.41 126.09,136.01 C118.67,133.82 98.24,131.77 92.48,132.64 C68.55,136.25 58.04,140.67 44.08,153.01 C30.71,164.82 23.13,177.17 18.42,194.80 C16.62,201.52 16.64,203.04 18.56,205.78 ZM 271.69 489.01 C267.88,489.94 76.39,491.05 75.49,490.16 C75.30,489.97 72.58,489.66 69.44,489.47 C64.58,489.18 63.21,488.64 60.27,485.81 C57.03,482.71 56.84,482.18 57.31,477.50 C58.39,466.73 61.95,464.24 74.54,465.51 C78.37,465.90 124.70,466.28 177.50,466.36 C253.40,466.47 274.76,466.23 279.50,465.19 C289.15,463.08 296.00,460.96 296.00,460.08 C296.00,459.63 298.68,458.29 301.95,457.10 C305.22,455.91 309.76,453.37 312.04,451.47 C314.32,449.56 316.75,448.00 317.43,448.00 C318.11,448.00 319.24,446.92 319.94,445.61 C320.64,444.30 322.30,442.73 323.61,442.13 C324.92,441.53 326.00,440.45 326.00,439.73 C326.00,439.01 328.02,436.73 330.50,434.66 C333.78,431.92 335.00,430.17 335.02,428.20 C335.03,424.87 336.42,422.52 337.84,423.40 C339.29,424.30 341.29,420.29 340.76,417.53 C340.46,415.93 340.79,415.31 341.92,415.39 C343.12,415.47 343.50,414.53 343.50,411.50 C343.50,409.30 344.06,407.14 344.75,406.70 C345.44,406.26 346.00,405.08 346.00,404.09 C346.00,403.09 346.83,401.20 347.85,399.88 C352.40,394.02 352.38,370.92 347.81,357.75 C346.34,353.52 344.80,353.02 342.64,356.11 C341.19,358.17 339.00,357.97 339.00,355.79 C339.00,355.18 340.12,353.21 341.50,351.41 C342.88,349.61 344.00,347.42 344.00,346.55 C344.00,343.45 333.89,327.08 329.65,323.31 C327.29,321.21 325.07,318.70 324.71,317.73 C324.34,316.75 323.26,315.65 322.29,315.28 C321.33,314.91 319.17,313.24 317.49,311.56 C314.03,308.10 303.85,302.34 296.75,299.81 L 292.00 298.12 L 292.00 300.56 C292.00,303.18 291.35,303.51 289.03,302.04 C287.77,301.24 287.80,301.01 289.28,300.45 C291.11,299.74 291.68,297.00 290.00,297.00 C289.45,297.00 289.00,297.39 289.00,297.88 C289.00,299.08 283.78,299.01 282.26,297.78 C281.58,297.22 281.24,296.42 281.51,295.98 C282.34,294.65 268.86,292.74 263.00,293.36 C249.87,294.74 247.50,295.27 246.20,297.12 C245.48,298.15 243.79,299.00 242.44,299.00 C240.98,299.00 240.00,299.58 240.00,300.44 C240.00,302.80 238.01,303.32 235.98,301.48 C234.53,300.17 233.18,299.93 230.29,300.47 C225.22,301.41 216.22,306.28 211.18,310.82 C208.93,312.84 206.30,314.99 205.34,315.58 C204.08,316.36 203.65,317.77 203.79,320.58 C203.91,322.74 203.51,325.17 202.92,326.00 C202.07,327.17 201.96,326.92 202.41,324.85 C203.35,320.54 200.58,320.61 196.62,325.00 C192.15,329.94 189.69,334.70 190.33,337.15 C190.66,338.40 190.06,339.57 188.59,340.53 C186.01,342.22 182.31,349.15 181.34,354.10 C180.98,355.97 180.10,358.40 179.39,359.50 C178.17,361.40 177.16,368.50 176.56,379.50 C176.12,387.61 178.14,398.22 180.23,398.77 C182.21,399.29 182.34,399.77 182.08,405.66 C181.88,409.97 183.21,411.86 185.29,410.22 C185.96,409.70 188.40,408.98 190.71,408.63 C196.73,407.71 202.20,410.10 204.34,414.58 C206.21,418.51 206.53,427.46 204.95,431.63 C204.37,433.15 203.48,437.75 202.95,441.87 C201.36,454.41 198.89,456.46 185.35,456.49 C180.31,456.49 176.39,456.18 176.63,455.80 C176.87,455.41 175.13,454.61 172.78,454.02 C170.43,453.44 167.72,452.51 166.76,451.98 C165.81,451.44 164.29,451.00 163.38,451.00 C162.48,451.00 160.00,449.42 157.87,447.50 C155.74,445.58 153.13,444.00 152.06,444.00 C149.86,444.00 148.56,440.96 149.50,438.00 C149.91,436.71 151.01,436.00 152.60,436.00 C153.95,436.00 155.33,435.31 155.65,434.47 C155.97,433.63 158.21,431.79 160.62,430.38 C165.51,427.51 165.61,427.31 163.51,424.32 C161.93,422.07 159.27,413.25 158.06,406.30 C157.27,401.72 155.52,399.00 153.38,399.00 C151.60,399.00 151.63,398.22 153.50,396.36 C155.28,394.57 155.47,388.12 153.84,384.55 C152.96,382.63 152.96,379.74 153.80,372.85 C154.42,367.82 154.56,363.03 154.10,362.21 C153.57,361.26 153.86,360.14 154.91,359.09 C155.82,358.18 157.61,352.96 158.90,347.47 C160.19,341.99 161.65,336.83 162.14,336.00 C162.63,335.17 163.59,333.38 164.27,332.00 C167.06,326.35 178.05,310.23 181.96,306.04 C183.64,304.24 185.28,301.73 185.60,300.47 C185.94,299.08 187.20,297.91 188.77,297.52 C192.16,296.67 194.21,293.96 192.78,292.23 C191.96,291.25 192.13,291.11 193.52,291.65 C194.70,292.10 195.10,291.96 194.65,291.25 C194.28,290.65 194.69,289.45 195.56,288.58 C197.33,286.81 200.00,286.46 200.00,288.00 C200.00,289.61 201.31,289.19 206.42,285.95 C210.87,283.12 211.10,282.79 209.41,281.56 C207.95,280.49 207.82,279.92 208.77,278.77 C211.39,275.61 221.34,274.03 219.46,277.07 C218.47,278.66 224.04,278.09 227.10,276.28 C228.69,275.34 230.00,273.98 230.00,273.25 C230.00,271.34 232.78,270.57 234.51,272.01 C235.69,272.99 237.95,272.88 245.62,271.50 C253.13,270.15 258.02,269.91 267.87,270.42 C269.67,270.51 271.33,270.60 272.86,270.68 C287.11,271.42 289.94,271.57 290.35,270.65 C290.45,270.42 290.40,270.13 290.34,269.77 C290.31,269.61 290.28,269.44 290.26,269.25 C290.13,268.01 290.40,267.00 290.86,267.00 C292.21,267.00 295.04,259.86 295.80,254.55 C296.42,250.21 296.84,249.55 299.44,248.86 C301.06,248.42 302.85,247.27 303.41,246.29 C304.42,244.55 304.61,243.99 304.88,242.10 C304.94,241.60 306.32,240.74 307.94,240.17 C309.55,239.61 311.56,237.82 312.40,236.20 C313.92,233.26 315.80,232.00 318.67,232.00 C319.50,232.00 322.05,230.69 324.34,229.09 C327.52,226.86 330.77,225.80 338.12,224.59 C349.50,222.71 355.40,222.61 366.95,224.11 C374.97,225.15 377.32,225.77 381.00,227.82 C385.04,230.09 389.27,232.00 390.22,232.00 C390.80,232.00 392.31,233.12 393.59,234.50 C394.86,235.88 396.34,237.00 396.88,237.00 C397.41,237.00 399.23,238.17 400.92,239.59 C402.62,241.01 404.00,241.67 404.00,241.05 C404.00,240.23 404.55,240.22 406.06,241.03 C407.69,241.90 407.88,242.44 406.97,243.53 C406.07,244.61 406.50,246.37 408.91,251.46 C410.61,255.06 412.00,258.49 412.00,259.07 C412.00,259.66 412.67,260.82 413.50,261.64 C414.32,262.47 415.25,264.35 415.57,265.82 C416.70,271.15 419.19,277.00 420.09,276.45 C421.53,275.55 421.15,276.99 419.50,278.64 C417.13,281.02 417.72,282.00 421.54,282.00 C426.75,282.00 429.76,284.46 431.44,290.10 C433.36,296.57 432.79,298.85 428.28,302.80 C426.20,304.62 424.05,306.57 423.50,307.14 C422.95,307.71 421.43,309.15 420.12,310.34 C418.81,311.53 416.47,313.81 414.93,315.41 C411.24,319.22 402.29,320.72 397.63,318.31 C393.45,316.15 392.35,314.88 391.57,311.31 C391.20,309.62 389.57,307.05 387.95,305.61 C386.21,304.06 385.00,301.98 385.00,300.55 C385.00,299.21 384.55,297.84 384.00,297.50 C382.70,296.69 382.70,290.00 384.00,290.00 C384.55,290.00 385.00,290.52 385.00,291.16 C385.00,291.79 386.12,293.79 387.50,295.59 C388.88,297.39 390.00,299.21 390.00,299.62 C390.00,300.04 391.86,303.46 394.14,307.23 C401.12,318.78 403.67,318.90 416.69,308.32 C427.59,299.46 429.00,297.74 429.00,293.32 C429.00,288.67 425.60,285.75 420.72,286.21 C416.98,286.56 416.93,286.52 415.47,281.60 C414.66,278.87 414.00,275.10 414.00,273.22 C414.00,268.74 407.43,254.89 402.16,248.29 C390.11,233.16 366.05,224.05 345.75,226.94 C337.63,228.10 325.61,232.73 318.33,237.50 C314.13,240.25 302.31,253.49 300.06,257.96 C299.08,259.91 297.55,262.85 296.65,264.50 C295.75,266.15 294.73,268.96 294.39,270.75 C293.64,274.75 293.35,274.78 269.60,273.37 C256.43,272.59 245.27,274.03 232.00,278.23 C220.69,281.81 215.26,284.44 204.24,291.67 C183.42,305.32 167.05,328.73 160.64,354.00 C156.92,368.69 157.06,391.18 160.96,405.25 C164.85,419.28 165.56,421.39 167.30,424.12 C169.06,426.90 167.99,431.00 165.50,431.00 C162.45,431.00 159.06,434.16 158.41,437.61 C157.52,442.39 159.50,446.57 163.34,448.03 C165.08,448.69 167.92,449.86 169.65,450.62 C171.38,451.38 174.01,452.00 175.50,452.00 C176.98,452.00 180.60,452.70 183.54,453.55 C190.05,455.45 196.15,454.23 198.56,450.55 C200.36,447.81 202.80,420.25 201.64,415.68 C200.29,410.34 189.57,408.51 186.68,413.14 C186.04,414.16 185.00,415.00 184.37,415.00 C182.77,415.00 180.40,411.11 179.50,407.00 C179.08,405.09 178.01,402.43 177.12,401.08 C174.69,397.40 173.23,383.12 174.12,371.62 C174.55,366.16 175.25,361.42 175.70,361.09 C177.56,359.72 179.00,355.76 179.00,351.99 C179.00,344.70 189.03,327.07 198.79,317.19 C207.78,308.09 216.42,302.06 227.37,297.24 C238.19,292.46 253.59,289.00 263.92,289.00 C276.97,289.01 294.00,293.30 306.79,299.81 C313.79,303.37 327.38,314.38 333.00,321.05 C348.74,339.70 357.27,367.89 353.88,390.00 C350.63,411.19 342.52,428.02 328.86,441.96 C320.03,450.97 312.40,456.44 301.88,461.32 C298.47,462.90 295.78,464.19 293.00,465.25 C280.51,470.01 266.21,470.01 176.55,470.00 C173.62,470.00 170.60,470.00 167.50,470.00 L 64.23 470.00 L 62.62 472.46 C60.07,476.36 60.52,481.48 63.63,483.93 C66.26,485.99 66.59,486.00 168.59,486.00 C258.11,486.00 272.21,485.80 281.21,484.38 C291.76,482.71 305.58,478.40 311.29,475.00 C313.05,473.95 316.67,471.94 319.32,470.55 C324.91,467.61 336.92,457.98 342.00,452.38 C354.59,438.49 364.67,418.76 368.00,401.50 C368.64,398.20 369.59,393.70 370.12,391.50 C371.72,384.81 371.83,363.98 370.28,360.04 C369.53,358.13 368.59,356.33 368.18,356.04 C367.76,355.74 366.94,353.25 366.33,350.50 C364.68,342.98 360.44,332.44 357.03,327.39 C355.36,324.92 354.00,322.67 354.00,322.38 C354.00,322.09 352.00,319.08 349.56,315.68 C343.84,307.70 334.21,298.43 326.00,292.99 C322.42,290.62 318.28,287.85 316.79,286.84 C315.30,285.83 313.70,285.00 313.23,285.00 C312.76,285.00 311.45,284.13 310.31,283.07 C308.49,281.37 308.36,280.63 309.21,276.82 C311.74,265.62 320.89,253.79 332.14,247.19 C340.40,242.35 353.65,240.44 363.48,242.67 C367.34,243.55 371.85,245.00 373.50,245.89 C382.19,250.60 391.97,259.29 393.39,263.57 C394.27,266.22 397.21,269.88 397.84,269.38 C397.81,269.49 397.76,269.57 397.70,269.63 C397.36,269.97 397.79,271.62 398.65,273.29 C399.70,275.32 400.06,277.90 399.76,281.12 C399.59,279.75 398.79,279.57 397.67,281.09 C396.84,282.21 395.40,282.54 392.71,282.22 C388.74,281.75 385.00,283.91 385.00,286.65 C385.00,287.39 384.49,288.00 383.88,288.00 C382.28,288.00 383.60,282.09 385.72,279.76 C386.90,278.46 388.50,277.97 390.96,278.17 C394.33,278.44 394.48,278.31 394.18,275.55 C393.77,271.76 391.34,267.01 388.53,264.50 C387.30,263.40 385.54,261.03 384.62,259.24 C383.55,257.16 381.32,255.22 378.47,253.88 C376.01,252.73 374.00,251.43 374.00,251.00 C374.00,249.49 367.11,246.99 362.10,246.67 C359.30,246.49 356.77,246.10 356.46,245.79 C355.62,244.95 343.00,245.94 338.82,247.18 C336.28,247.94 334.97,249.00 334.56,250.64 C334.23,251.94 333.26,253.00 332.41,253.00 C331.55,253.00 328.80,254.20 326.30,255.67 C323.03,257.59 321.20,259.56 319.84,262.64 C318.79,265.00 317.02,267.57 315.91,268.35 C314.29,269.49 313.94,270.67 314.19,274.14 C314.48,278.25 314.66,278.48 317.25,278.18 C319.47,277.92 320.00,278.26 320.00,279.93 C320.00,281.07 319.55,282.00 319.00,282.00 C316.68,282.00 318.31,284.10 322.60,286.61 C326.08,288.65 327.38,289.00 327.97,288.04 C329.05,286.30 332.75,287.64 333.52,290.07 C333.89,291.23 334.62,291.74 335.32,291.32 C336.22,290.78 336.22,290.96 335.33,292.06 C333.78,293.98 335.68,296.63 339.23,297.52 C340.78,297.91 342.06,299.08 342.40,300.44 C342.71,301.69 344.44,304.34 346.23,306.34 C350.23,310.77 363.00,329.29 363.00,330.64 C363.00,330.95 363.61,332.62 364.35,334.35 C366.38,339.10 369.01,347.32 369.00,348.90 C369.00,349.68 370.08,352.60 371.41,355.40 C373.49,359.80 373.85,362.15 374.02,372.50 C374.24,385.67 373.01,398.28 371.18,401.68 C370.53,402.89 369.99,404.91 369.98,406.18 C369.98,407.46 369.32,410.30 368.53,412.50 C367.74,414.70 367.07,418.13 367.04,420.13 C367.02,422.12 366.33,424.31 365.51,424.99 C364.65,425.70 364.12,427.55 364.26,429.36 C364.47,432.08 364.18,432.50 362.08,432.50 C360.29,432.50 359.46,433.21 358.93,435.20 C357.64,439.98 345.95,453.52 334.08,463.98 C327.45,469.83 322.65,472.99 313.94,477.26 C307.65,480.34 299.80,483.60 296.50,484.51 C293.13,485.43 289.70,487.10 288.68,488.32 C287.41,489.83 286.70,490.12 286.34,489.25 C285.72,487.72 277.59,487.59 271.69,489.01 ZM 425.00 125.49 C402.94,132.05 379.61,120.99 370.08,99.45 C365.60,89.31 366.40,70.41 371.77,59.57 C374.70,53.67 382.97,44.76 388.50,41.55 C396.62,36.83 411.33,35.12 423.08,37.52 C432.98,39.53 437.36,42.11 445.92,50.90 C449.44,54.53 452.71,57.39 453.17,57.25 C453.62,57.11 454.00,57.87 454.00,58.94 C454.00,60.01 454.40,61.13 454.88,61.43 C455.36,61.72 456.05,67.49 456.40,74.23 C457.13,88.08 455.34,102.67 452.73,104.13 C451.91,104.59 448.65,108.35 445.48,112.48 C442.31,116.62 439.21,120.00 438.57,120.00 C437.94,120.00 435.64,120.94 433.46,122.08 C431.28,123.22 427.48,124.76 425.00,125.49 ZM 403.23 123.94 C436.20,130.44 462.68,99.73 452.55,66.75 C450.02,58.51 442.70,49.65 434.00,44.32 C423.11,37.65 406.37,37.28 393.61,43.42 C380.79,49.58 372.78,60.22 369.93,74.88 C367.30,88.38 372.97,103.67 384.50,114.19 C388.69,118.01 398.16,122.94 403.23,123.94 ZM 245.38 93.59 C256.93,96.39 270.94,94.44 278.91,88.93 C285.77,84.20 292.44,76.69 295.52,70.24 C299.52,61.87 300.11,49.21 297.00,38.72 C292.07,22.11 274.85,9.00 257.95,9.00 C253.16,9.00 240.15,12.37 235.33,14.85 C229.11,18.06 220.98,26.83 217.58,34.00 C214.67,40.14 214.50,41.17 214.50,52.50 C214.50,64.30 214.56,64.61 218.00,71.00 C224.10,82.35 234.53,90.95 245.38,93.59 ZM 91.50 123.59 C98.04,125.08 108.54,124.74 114.07,122.85 C123.84,119.52 134.38,110.04 139.19,100.27 C141.89,94.78 142.46,92.34 142.82,84.79 C143.76,65.30 135.60,50.87 119.02,42.69 C112.89,39.67 111.94,39.50 101.52,39.55 C91.77,39.59 89.72,39.92 83.73,42.41 C66.79,49.46 56.88,66.20 58.35,85.30 C59.74,103.52 73.59,119.51 91.50,123.59 ZM 433.81 501.83 C432.87,502.55 429.94,503.72 427.29,504.42 C423.17,505.51 421.98,505.47 419.20,504.15 C417.41,503.30 415.75,501.68 415.52,500.55 C414.68,496.38 413.66,488.47 413.86,487.64 C413.98,487.17 398.19,486.89 378.79,487.02 C359.38,487.14 342.96,487.19 342.30,487.12 C341.64,487.06 339.91,485.44 338.46,483.53 C336.21,480.59 335.92,479.46 336.49,476.03 C336.87,473.81 337.67,472.00 338.28,472.00 C338.89,472.00 340.64,470.81 342.16,469.35 L 344.92 466.70 L 379.33 466.91 C382.02,466.93 384.51,466.95 386.81,466.97 C407.69,467.12 413.21,467.16 414.60,464.79 C415.10,463.93 415.07,462.77 415.03,461.19 C415.01,460.70 415.00,460.17 415.00,459.61 C415.00,456.23 415.59,454.81 417.93,452.56 C420.43,450.17 421.39,449.85 424.43,450.42 C426.38,450.79 428.10,450.96 428.24,450.79 C428.63,450.36 440.19,459.41 442.40,461.88 C443.45,463.05 444.80,464.01 445.40,464.03 C446.01,464.05 448.30,466.17 450.50,468.74 C453.96,472.79 454.50,474.06 454.50,478.22 C454.50,482.76 454.22,483.28 449.52,487.27 C446.78,489.60 442.51,493.52 440.02,496.00 C437.53,498.48 434.74,501.10 433.81,501.83 ZM 429.08 501.24 C435.28,497.05 451.14,482.30 451.65,480.25 C452.81,475.63 450.96,473.04 439.34,463.03 C426.57,452.03 424.27,451.14 419.39,455.34 C415.97,458.28 415.73,463.02 418.83,466.32 C419.07,466.57 419.29,466.82 419.50,467.07 C419.28,466.86 419.04,466.64 418.77,466.40 C417.07,464.95 416.85,464.91 417.85,466.21 C418.58,467.14 418.88,468.38 418.53,468.96 C418.39,469.18 418.37,469.39 418.44,469.56 C412.97,469.82 399.32,470.00 383.45,470.00 L 345.91 470.00 L 343.45 472.45 C340.27,475.64 340.26,479.91 343.45,483.35 L 345.90 486.00 L 383.45 486.00 C400.20,486.00 414.48,486.18 419.28,486.42 C419.11,486.67 419.00,487.01 419.00,487.38 C419.00,488.14 418.33,489.32 417.50,490.00 C416.67,490.68 416.00,491.67 416.00,492.20 C416.00,492.72 417.12,491.82 418.50,490.18 C415.24,494.06 415.34,496.50 418.92,500.08 C422.25,503.41 425.35,503.76 429.08,501.24 ZM 277.92 1.25 C276.88,0.26 247.57,0.00 138.30,0.00 L 396.08 0.00 C304.26,0.00 280.07,0.26 279.71,1.25 C279.34,2.25 278.98,2.25 277.92,1.25 ZM 61.00 491.98 C58.15,493.85 56.20,493.00 54.10,488.97 C51.82,484.60 51.42,481.48 53.00,480.50 C53.59,480.13 54.00,481.26 54.00,483.24 C54.00,486.85 55.46,488.99 57.95,489.02 C58.80,489.02 60.17,489.47 61.00,490.02 C62.33,490.89 62.33,491.11 61.00,491.98 ZM 347.85 461.11 C346.08,462.24 345.61,462.21 344.32,460.92 C342.53,459.13 343.96,455.85 346.37,456.20 C348.82,456.55 349.82,459.87 347.85,461.11 ZM 188.42 355.36 C187.15,358.65 185.00,357.16 185.00,353.00 C185.00,350.80 185.21,349.00 185.48,349.00 C186.71,349.00 188.97,353.90 188.42,355.36 ZM 430.64 278.69 C429.51,279.82 424.07,279.92 423.39,278.82 C422.99,278.17 423.14,277.97 423.74,278.34 C424.32,278.70 425.05,278.32 425.36,277.49 C425.68,276.67 426.82,276.00 427.91,276.00 C429.93,276.00 431.64,277.69 430.64,278.69 ZM 188.97 401.98 C190.01,402.62 189.94,403.24 188.67,405.06 C187.14,407.24 187.04,407.26 186.38,405.42 C186.00,404.37 185.54,403.21 185.35,402.85 C184.79,401.79 187.58,401.12 188.97,401.98 ZM 303.38 488.46 C302.74,490.12 299.47,490.56 298.57,489.11 C297.76,487.80 300.74,485.69 302.47,486.35 C303.32,486.68 303.71,487.58 303.38,488.46 ZM 342.26 403.40 C341.33,404.33 339.18,404.11 338.50,403.00 C337.68,401.68 338.78,400.00 340.45,400.00 C341.91,400.00 343.22,402.45 342.26,403.40 ZM 268.47 294.96 C268.88,295.62 267.48,296.00 264.62,296.00 C258.76,296.00 257.79,294.44 263.47,294.14 C265.87,294.02 268.12,294.39 268.47,294.96 ZM 171.43 152.33 C171.07,153.25 170.37,154.00 169.86,154.00 C168.35,154.00 167.64,150.96 168.87,149.73 C170.40,148.20 172.28,150.11 171.43,152.33 ZM 320.00 272.11 C320.00,273.15 319.33,274.00 318.50,274.00 C317.57,274.00 317.00,273.06 317.00,271.53 C317.00,269.75 317.42,269.22 318.50,269.64 C319.33,269.95 320.00,271.07 320.00,272.11 ZM 326.00 436.56 C326.00,438.03 323.86,438.53 322.67,437.33 C321.62,436.29 321.89,434.81 323.00,435.50 C323.55,435.84 324.00,435.61 324.00,435.00 C324.00,434.39 324.45,434.16 325.00,434.50 C325.55,434.84 326.00,435.77 326.00,436.56 ZM 285.61 494.47 C285.33,496.38 284.77,496.82 283.31,496.30 C281.78,495.75 282.79,493.00 284.52,493.00 C285.24,493.00 285.73,493.66 285.61,494.47 ZM 146.00 355.44 C146.00,357.56 144.31,358.24 143.60,356.41 C142.75,354.18 142.82,354.00 144.50,354.00 C145.32,354.00 146.00,354.65 146.00,355.44 ZM 68.30 128.51 C67.96,130.25 65.00,130.24 65.00,128.50 C65.00,127.47 65.66,126.98 66.75,127.19 C67.71,127.38 68.41,127.97 68.30,128.51 ZM 219.36 316.50 C220.21,318.70 218.25,318.33 217.03,316.06 C216.29,314.68 216.33,313.92 217.15,313.41 C217.87,312.96 218.04,313.13 217.60,313.85 C217.20,314.48 217.31,315.00 217.83,315.00 C218.36,315.00 219.05,315.67 219.36,316.50 ZM 176.00 459.00 C176.00,459.55 174.76,459.99 173.25,459.98 C171.11,459.97 170.83,459.76 172.00,459.00 C173.96,457.74 176.00,457.74 176.00,459.00 ZM 347.00 366.00 C347.00,366.55 346.33,367.00 345.50,367.00 C344.67,367.00 344.00,366.55 344.00,366.00 C344.00,365.45 344.67,365.00 345.50,365.00 C346.33,365.00 347.00,365.45 347.00,366.00 ZM 331.45 207.21 C337.82,207.81 359.83,208.00 412.00,208.00 C353.03,208.00 336.49,207.99 331.45,207.21 ZM 483.00 208.00 L 412.02 208.00 C451.76,208.00 472.30,207.97 483.00,207.72 ZM 346.00 154.00 C346.00,154.55 345.55,155.00 345.00,155.00 C344.45,155.00 344.00,154.55 344.00,154.00 C344.00,153.45 344.45,153.00 345.00,153.00 C345.55,153.00 346.00,153.45 346.00,154.00 ZM 399.25 284.85 C398.89,286.43 398.39,287.03 397.56,286.92 C398.22,286.66 398.84,285.94 399.25,284.85 ZM 328.75 203.97 C328.77,204.82 328.87,205.54 329.06,206.11 C329.04,206.08 329.02,206.04 329.00,206.00 C328.41,204.90 328.28,203.99 328.71,203.97 C328.73,203.97 328.74,203.97 328.75,203.97 ZM 390.28 285.08 C388.92,285.30 387.85,285.91 387.54,286.87 C387.15,288.09 387.29,289.54 387.99,291.26 C386.48,287.72 387.22,285.52 390.28,285.08 ZM 395.43 285.91 C394.50,285.44 393.47,285.15 392.46,285.04 C393.84,285.15 395.04,285.49 395.43,285.91 ZM 420.55 487.49 C420.78,487.09 420.91,486.79 420.92,486.57 C420.97,486.58 421.00,486.59 421.00,486.61 C421.00,486.73 420.83,487.05 420.55,487.49 ZM 339.96 171.95 C340.13,171.92 340.31,171.83 340.49,171.69 C340.31,171.89 340.16,172.00 340.05,172.00 C340.02,172.00 339.99,171.98 339.96,171.95 ZM 420.91 469.36 C420.93,469.25 420.93,469.13 420.90,469.00 C420.96,469.13 421.00,469.24 421.00,469.31 C421.00,469.33 420.97,469.35 420.91,469.36 Z" fill="rgb(251,252,248)"/>
<path d="M 420.55 487.49 C420.10,488.18 419.34,489.18 418.50,490.18 C417.12,491.82 416.00,492.72 416.00,492.20 C416.00,491.67 416.67,490.68 417.50,490.00 C418.33,489.32 419.00,488.14 419.00,487.38 C419.00,487.01 419.11,486.67 419.28,486.42 C420.16,486.47 420.73,486.52 420.92,486.57 C420.91,486.79 420.78,487.09 420.55,487.49 ZM 339.96 171.95 C339.72,171.70 339.30,170.59 338.83,169.00 C338.72,168.43 338.58,167.82 338.43,167.33 C338.06,166.15 338.35,166.31 339.23,167.78 C339.99,169.04 340.94,169.72 341.35,169.31 C341.76,168.91 341.81,169.31 341.47,170.21 C341.14,170.85 340.78,171.38 340.49,171.69 C340.31,171.83 340.13,171.92 339.96,171.95 ZM 420.91 469.36 C420.64,469.43 419.79,469.50 418.44,469.56 C418.37,469.39 418.39,469.18 418.53,468.96 C418.88,468.38 418.58,467.14 417.85,466.21 C416.85,464.91 417.07,464.95 418.77,466.40 C419.04,466.64 419.28,466.86 419.50,467.07 C420.16,467.84 420.69,468.56 420.90,469.00 C420.93,469.13 420.93,469.25 420.91,469.36 Z" fill="rgb(194,247,237)"/>
<path d="M 390.00 299.62 C390.00,299.21 388.88,297.39 387.50,295.59 C388.88,297.39 390.00,299.18 390.00,299.56 C390.00,300.27 394.32,305.67 399.17,311.04 C402.44,314.65 406.46,314.92 409.79,311.75 C411.10,310.51 413.43,308.26 414.98,306.75 C416.53,305.24 418.23,304.00 418.75,304.00 C420.08,304.00 423.36,300.97 425.34,297.91 C426.48,296.15 426.81,294.32 426.38,292.14 C425.59,288.21 424.57,287.52 419.50,287.51 C415.76,287.50 415.50,287.31 415.37,284.50 C415.30,283.05 415.15,281.32 414.94,279.56 C415.10,280.27 415.28,280.96 415.47,281.60 C416.93,286.52 416.98,286.56 420.72,286.21 C425.60,285.75 429.00,288.67 429.00,293.32 C429.00,297.74 427.59,299.46 416.69,308.32 C403.67,318.90 401.12,318.78 394.14,307.23 C391.86,303.46 390.00,300.04 390.00,299.62 ZM 414.00 273.38 C413.64,271.52 413.29,270.19 413.04,270.00 C411.93,269.15 407.00,259.82 407.00,258.56 C407.00,257.91 406.19,256.50 405.20,255.44 C404.21,254.37 402.54,252.04 401.48,250.25 C400.43,248.46 399.22,247.00 398.78,247.00 C396.94,247.00 396.41,246.78 394.77,245.30 C393.82,244.44 393.25,243.40 393.50,243.00 C394.38,241.57 383.96,233.89 377.29,231.06 C376.26,230.62 375.22,230.22 374.18,229.84 C385.38,233.53 395.57,240.01 402.16,248.29 C407.43,254.89 414.00,268.74 414.00,273.22 C414.00,273.27 414.00,273.32 414.00,273.38 ZM 305.15 250.94 C301.06,256.02 298.37,260.57 297.46,264.00 C295.63,270.82 294.95,274.71 295.33,276.15 C295.63,277.29 295.32,277.67 294.39,277.32 C293.62,277.03 293.00,276.21 293.00,275.50 C293.00,274.75 291.69,274.35 288.72,274.20 C293.67,274.07 293.95,273.09 294.39,270.75 C294.73,268.96 295.75,266.15 296.65,264.50 C297.55,262.85 299.08,259.91 300.06,257.96 C300.84,256.41 302.78,253.80 305.15,250.94 ZM 329.85 231.61 C329.73,231.66 329.62,231.72 329.50,231.77 C322.23,235.09 318.74,236.95 315.03,240.26 C316.34,239.02 317.49,238.05 318.33,237.50 C321.51,235.42 325.59,233.36 329.85,231.61 ZM 351.50 226.44 C348.29,226.59 345.09,227.00 341.93,227.67 C343.27,227.36 344.55,227.11 345.75,226.94 C347.64,226.68 349.56,226.51 351.50,226.44 ZM 276.00 273.74 C273.82,273.64 271.61,273.52 269.60,273.39 C264.63,273.09 259.96,273.10 255.35,273.46 C259.96,273.10 264.64,273.08 269.60,273.37 C271.95,273.51 274.08,273.63 276.00,273.74 Z" fill="rgb(242,107,121)"/>
<path d="M 0.00 0.00 L 138.30 0.00 C247.57,0.00 276.88,0.26 277.92,1.25 C278.98,2.25 279.34,2.25 279.71,1.25 C280.07,0.26 304.26,0.00 396.08,0.00 L 512.00 0.00 L 512.00 512.00 L 0.00 512.00 ZM 331.45 207.21 C336.49,207.99 353.03,208.00 412.00,208.00 L 493.93 208.00 L 495.17 205.75 C495.99,204.26 496.32,199.82 496.15,192.60 C495.89,181.19 494.66,176.96 491.07,175.04 C489.57,174.24 489.19,173.03 489.33,169.53 C489.46,166.07 488.99,164.54 487.25,162.81 C486.01,161.57 485.00,161.11 485.00,161.78 C485.00,164.01 482.14,163.04 479.05,159.75 C477.31,157.90 476.24,155.87 476.55,155.03 C477.20,153.31 470.39,147.00 467.88,147.00 C466.98,147.00 465.68,146.32 465.00,145.50 C464.32,144.68 463.12,144.00 462.33,144.00 C461.55,144.00 458.66,141.90 455.91,139.32 C452.04,135.69 450.14,134.63 447.46,134.57 C444.89,134.52 444.01,134.06 444.00,132.79 C444.00,130.53 440.42,128.68 437.49,129.41 C436.07,129.77 435.00,129.51 434.75,128.75 C434.43,127.79 433.18,127.91 429.41,129.24 C424.53,130.98 417.00,131.38 417.00,129.91 C417.00,129.49 415.67,129.52 414.04,129.99 C412.42,130.45 408.48,130.54 405.29,130.18 C392.13,128.70 385.80,129.60 381.51,133.58 C379.28,135.65 377.98,136.10 375.44,135.68 C371.62,135.06 368.00,137.20 368.00,140.07 C368.00,143.41 362.28,146.20 356.82,145.53 C351.87,144.92 350.05,145.96 352.51,148.01 C354.74,149.86 354.38,150.80 350.02,154.72 C347.09,157.35 345.07,158.33 342.41,158.40 C338.33,158.51 336.82,156.57 335.54,149.52 C335.15,147.33 334.32,144.63 333.70,143.52 C333.08,142.41 332.67,141.15 332.79,140.73 C332.92,140.30 331.89,139.53 330.51,139.00 C329.13,138.48 328.00,137.48 328.00,136.77 C327.99,135.39 322.37,129.00 321.15,129.00 C320.74,129.00 319.85,127.47 319.17,125.60 C318.34,123.30 317.11,121.99 315.35,121.55 C313.93,121.20 313.02,120.64 313.34,120.32 C314.19,119.48 308.66,115.83 299.00,110.87 C290.78,106.64 288.76,105.20 289.47,104.05 C289.65,103.75 286.48,103.45 282.41,103.38 C278.35,103.32 274.45,102.79 273.76,102.22 C272.60,101.26 267.58,100.03 262.57,99.48 C261.43,99.36 260.05,99.17 259.50,99.06 C257.80,98.72 266.21,95.92 271.69,95.00 C275.59,94.34 278.19,93.04 282.19,89.74 C291.33,82.20 294.54,78.69 297.94,72.55 L 301.24 66.61 L 300.81 52.55 C300.28,34.98 298.42,30.11 288.63,20.68 C279.00,11.41 277.01,10.22 267.36,7.93 C258.80,5.91 254.70,5.84 245.16,7.55 C234.61,9.44 221.38,20.22 214.75,32.32 L 211.00 39.16 L 211.00 65.25 L 214.94 72.38 C219.30,80.25 224.45,85.63 233.50,91.76 C238.38,95.06 240.72,95.96 246.00,96.54 C257.28,97.78 257.38,98.57 246.50,100.44 C230.20,103.24 220.95,105.80 217.43,108.49 C215.62,109.87 213.63,111.00 213.02,111.00 C210.45,111.00 203.05,116.09 196.71,122.21 C192.74,126.05 188.73,129.00 187.05,129.34 C184.84,129.78 184.28,130.36 184.66,131.79 C185.25,134.08 181.41,141.73 178.86,143.32 C177.69,144.05 177.00,145.64 177.00,147.62 C177.00,151.49 174.42,157.90 171.92,160.27 C170.12,161.97 169.97,161.96 168.41,160.13 C166.63,158.03 161.75,153.01 158.30,149.73 C157.08,148.58 155.96,146.71 155.80,145.57 C155.56,143.90 154.78,143.50 151.78,143.50 C147.48,143.50 143.57,140.31 143.53,136.77 C143.50,134.27 140.22,133.02 138.98,135.03 C138.44,135.90 138.03,135.66 137.57,134.22 C136.84,131.94 133.73,130.31 133.19,131.94 C132.54,133.88 126.49,132.94 116.00,129.29 C115.18,129.00 111.91,128.85 108.75,128.95 C101.26,129.20 101.26,127.37 108.75,126.82 C113.31,126.49 116.03,125.49 121.90,122.00 C125.96,119.58 129.50,116.80 129.75,115.83 C130.01,114.86 131.03,113.81 132.04,113.49 C133.04,113.17 134.78,111.47 135.90,109.71 C137.03,107.94 139.11,104.79 140.52,102.71 C141.93,100.62 143.55,96.41 144.11,93.35 C145.25,87.19 144.81,74.34 143.18,66.26 C142.00,60.38 135.64,50.64 131.13,47.78 C129.60,46.82 127.80,45.00 127.13,43.74 C125.48,40.65 114.24,37.33 102.50,36.46 C94.76,35.89 92.59,36.10 87.00,37.97 C77.35,41.21 72.95,44.15 65.18,52.58 C58.74,59.57 58.09,60.69 57.09,66.39 C54.55,80.99 54.68,87.12 57.78,99.06 C58.94,103.53 71.39,118.63 74.58,119.43 C76.92,120.02 82.63,123.42 86.50,126.53 C88.15,127.86 88.20,128.05 86.75,127.60 C85.60,127.25 85.00,127.60 85.00,128.62 C85.00,129.89 84.24,130.05 80.93,129.49 C77.80,128.96 76.59,129.17 75.68,130.39 C75.03,131.27 70.78,133.50 66.22,135.36 C61.67,137.22 57.17,139.40 56.22,140.22 C55.28,141.04 52.59,142.75 50.25,144.04 C47.91,145.32 46.00,146.65 46.00,147.00 C46.00,147.34 44.58,148.68 42.83,149.96 C40.62,151.60 39.85,151.84 40.27,150.75 C41.12,148.53 38.81,145.75 36.76,146.54 C34.87,147.26 33.54,150.45 34.49,151.99 C34.84,152.55 36.02,153.00 37.11,153.00 C39.07,153.00 38.31,154.01 23.23,171.50 C22.28,172.60 21.35,174.56 21.17,175.86 C20.99,177.15 19.91,180.30 18.78,182.86 C16.30,188.48 14.68,195.90 14.58,202.10 C14.57,202.76 14.51,203.36 14.46,203.92 C14.37,205.00 14.29,205.90 14.59,206.63 C16.00,210.05 25.71,210.04 80.52,210.01 C86.53,210.00 93.08,210.00 100.22,210.00 C182.50,210.00 183.22,209.98 186.10,207.93 C189.59,205.44 189.80,202.65 186.97,196.45 C185.86,194.00 184.68,190.64 184.35,188.98 C184.01,187.32 183.35,185.72 182.87,185.42 C182.39,185.12 182.00,184.24 182.00,183.46 C182.00,182.32 182.48,182.26 184.46,183.16 C186.42,184.06 187.42,183.96 189.38,182.67 C191.58,181.23 198.66,181.05 255.42,181.01 C301.09,180.98 319.00,181.28 319.00,182.07 C319.00,182.81 320.35,182.95 323.03,182.49 C330.04,181.31 331.78,185.95 326.14,190.74 C323.85,192.68 323.67,193.24 324.75,194.97 C325.44,196.07 326.00,198.08 326.00,199.44 C326.00,200.79 326.79,202.36 327.75,202.92 C328.23,203.20 328.57,203.45 328.75,203.64 C328.75,203.75 328.75,203.86 328.75,203.97 C328.74,203.97 328.73,203.97 328.71,203.97 C328.28,203.99 328.41,204.90 329.00,206.00 C329.02,206.04 329.04,206.08 329.06,206.11 C329.15,206.37 329.25,206.59 329.37,206.79 C329.47,206.95 330.12,207.09 331.45,207.21 ZM 271.69 489.01 C277.59,487.59 285.72,487.72 286.34,489.25 C286.70,490.12 287.41,489.83 288.68,488.32 C289.70,487.10 293.13,485.43 296.50,484.51 C299.80,483.60 307.65,480.34 313.94,477.26 C322.65,472.99 327.45,469.83 334.08,463.98 C345.95,453.52 357.64,439.98 358.93,435.20 C359.46,433.21 360.29,432.50 362.08,432.50 C364.18,432.50 364.47,432.08 364.26,429.36 C364.12,427.55 364.65,425.70 365.51,424.99 C366.33,424.31 367.02,422.12 367.04,420.13 C367.07,418.13 367.74,414.70 368.53,412.50 C369.32,410.30 369.98,407.46 369.98,406.18 C369.99,404.91 370.53,402.89 371.18,401.68 C373.01,398.28 374.24,385.67 374.02,372.50 C373.85,362.15 373.49,359.80 371.41,355.40 C370.08,352.60 369.00,349.68 369.00,348.90 C369.01,347.32 366.38,339.10 364.35,334.35 C363.61,332.62 363.00,330.95 363.00,330.64 C363.00,329.29 350.23,310.77 346.23,306.34 C344.44,304.34 342.71,301.69 342.40,300.44 C342.06,299.08 340.78,297.91 339.23,297.52 C335.68,296.63 333.78,293.98 335.33,292.06 C336.22,290.96 336.22,290.78 335.32,291.32 C334.62,291.74 333.89,291.23 333.52,290.07 C332.75,287.64 329.05,286.30 327.97,288.04 C327.38,289.00 326.08,288.65 322.60,286.61 C318.31,284.10 316.68,282.00 319.00,282.00 C319.55,282.00 320.00,281.07 320.00,279.93 C320.00,278.26 319.47,277.92 317.25,278.18 C314.66,278.48 314.48,278.25 314.19,274.14 C313.94,270.67 314.29,269.49 315.91,268.35 C317.02,267.57 318.79,265.00 319.84,262.64 C321.20,259.56 323.03,257.59 326.30,255.67 C328.80,254.20 331.55,253.00 332.41,253.00 C333.26,253.00 334.23,251.94 334.56,250.64 C334.97,249.00 336.28,247.94 338.82,247.18 C343.00,245.94 355.62,244.95 356.46,245.79 C356.77,246.10 359.30,246.49 362.10,246.67 C367.11,246.99 374.00,249.49 374.00,251.00 C374.00,251.43 376.01,252.73 378.47,253.88 C381.32,255.22 383.55,257.16 384.62,259.24 C385.54,261.03 387.30,263.40 388.53,264.50 C391.34,267.01 393.77,271.76 394.18,275.55 C394.48,278.31 394.33,278.44 390.96,278.17 C388.50,277.97 386.90,278.46 385.72,279.76 C383.60,282.09 382.28,288.00 383.88,288.00 C384.49,288.00 385.00,287.39 385.00,286.65 C385.00,284.73 386.83,283.10 389.29,282.45 C384.47,283.87 383.21,289.96 387.50,295.59 C386.12,293.79 385.00,291.79 385.00,291.16 C385.00,290.52 384.55,290.00 384.00,290.00 C382.70,290.00 382.70,296.69 384.00,297.50 C384.55,297.84 385.00,299.21 385.00,300.55 C385.00,301.98 386.21,304.06 387.95,305.61 C389.57,307.05 391.20,309.62 391.57,311.31 C392.35,314.88 393.45,316.15 397.63,318.31 C402.29,320.72 411.24,319.22 414.93,315.41 C416.47,313.81 418.81,311.53 420.12,310.34 C421.43,309.15 422.95,307.71 423.50,307.14 C424.05,306.57 426.20,304.62 428.28,302.80 C432.79,298.85 433.36,296.57 431.44,290.10 C429.76,284.46 426.75,282.00 421.54,282.00 C417.72,282.00 417.13,281.02 419.50,278.64 C421.15,276.99 421.53,275.55 420.09,276.45 C419.19,277.00 416.70,271.15 415.57,265.82 C415.25,264.35 414.32,262.47 413.50,261.64 C412.67,260.82 412.00,259.66 412.00,259.07 C412.00,258.49 410.61,255.06 408.91,251.46 C406.50,246.37 406.07,244.61 406.97,243.53 C407.88,242.44 407.69,241.90 406.06,241.03 C404.55,240.22 404.00,240.23 404.00,241.05 C404.00,241.67 402.62,241.01 400.92,239.59 C399.23,238.17 397.41,237.00 396.88,237.00 C396.34,237.00 394.86,235.88 393.59,234.50 C392.31,233.12 390.80,232.00 390.22,232.00 C389.27,232.00 385.04,230.09 381.00,227.82 C377.32,225.77 374.97,225.15 366.95,224.11 C355.40,222.61 349.50,222.71 338.12,224.59 C330.77,225.80 327.52,226.86 324.34,229.09 C322.05,230.69 319.50,232.00 318.67,232.00 C315.80,232.00 313.92,233.26 312.40,236.20 C311.56,237.82 309.55,239.61 307.94,240.17 C306.32,240.74 304.94,241.60 304.88,242.10 C304.61,243.99 304.42,244.55 303.41,246.29 C302.85,247.27 301.06,248.42 299.44,248.86 C296.84,249.55 296.42,250.21 295.80,254.55 C295.04,259.86 292.21,267.00 290.86,267.00 C290.40,267.00 290.13,268.01 290.26,269.25 C290.28,269.44 290.31,269.61 290.34,269.77 C290.40,270.13 290.45,270.42 290.35,270.65 C289.94,271.57 287.11,271.42 272.86,270.68 C271.33,270.60 269.67,270.51 267.87,270.42 C258.02,269.91 253.13,270.15 245.62,271.50 C237.95,272.88 235.69,272.99 234.51,272.01 C232.78,270.57 230.00,271.34 230.00,273.25 C230.00,273.98 228.69,275.34 227.10,276.28 C224.04,278.09 218.47,278.66 219.46,277.07 C221.34,274.03 211.39,275.61 208.77,278.77 C207.82,279.92 207.95,280.49 209.41,281.56 C211.10,282.79 210.87,283.12 206.42,285.95 C201.31,289.19 200.00,289.61 200.00,288.00 C200.00,286.46 197.33,286.81 195.56,288.58 C194.69,289.45 194.28,290.65 194.65,291.25 C195.10,291.96 194.70,292.10 193.52,291.65 C192.13,291.11 191.96,291.25 192.78,292.23 C194.21,293.96 192.16,296.67 188.77,297.52 C187.20,297.91 185.94,299.08 185.60,300.47 C185.28,301.73 183.64,304.24 181.96,306.04 C178.05,310.23 167.06,326.35 164.27,332.00 C163.59,333.38 162.63,335.17 162.14,336.00 C161.65,336.83 160.19,341.99 158.90,347.47 C157.61,352.96 155.82,358.18 154.91,359.09 C153.86,360.14 153.57,361.26 154.10,362.21 C154.56,363.03 154.42,367.82 153.80,372.85 C152.96,379.74 152.96,382.63 153.84,384.55 C155.47,388.12 155.28,394.57 153.50,396.36 C151.63,398.22 151.60,399.00 153.38,399.00 C155.52,399.00 157.27,401.72 158.06,406.30 C159.27,413.25 161.93,422.07 163.51,424.32 C165.61,427.31 165.51,427.51 160.62,430.38 C158.21,431.79 155.97,433.63 155.65,434.47 C155.33,435.31 153.95,436.00 152.60,436.00 C151.01,436.00 149.91,436.71 149.50,438.00 C148.56,440.96 149.86,444.00 152.06,444.00 C153.13,444.00 155.74,445.58 157.87,447.50 C160.00,449.42 162.48,451.00 163.38,451.00 C164.29,451.00 165.81,451.44 166.76,451.98 C167.72,452.51 170.43,453.44 172.78,454.02 C175.13,454.61 176.87,455.41 176.63,455.80 C176.39,456.18 180.31,456.49 185.35,456.49 C198.89,456.46 201.36,454.41 202.95,441.87 C203.48,437.75 204.37,433.15 204.95,431.63 C206.53,427.46 206.21,418.51 204.34,414.58 C202.20,410.10 196.73,407.71 190.71,408.63 C188.40,408.98 185.96,409.70 185.29,410.22 C183.21,411.86 181.88,409.97 182.08,405.66 C182.34,399.77 182.21,399.29 180.23,398.77 C178.14,398.22 176.12,387.61 176.56,379.50 C177.16,368.50 178.17,361.40 179.39,359.50 C180.10,358.40 180.98,355.97 181.34,354.10 C182.31,349.15 186.01,342.22 188.59,340.53 C190.06,339.57 190.66,338.40 190.33,337.15 C189.69,334.70 192.15,329.94 196.62,325.00 C200.58,320.61 203.35,320.54 202.41,324.85 C201.96,326.92 202.07,327.17 202.92,326.00 C203.51,325.17 203.91,322.74 203.79,320.58 C203.65,317.77 204.08,316.36 205.34,315.58 C206.30,314.99 208.93,312.84 211.18,310.82 C216.22,306.28 225.22,301.41 230.29,300.47 C233.18,299.93 234.53,300.17 235.98,301.48 C238.01,303.32 240.00,302.80 240.00,300.44 C240.00,299.58 240.98,299.00 242.44,299.00 C243.79,299.00 245.48,298.15 246.20,297.12 C247.50,295.27 249.87,294.74 263.00,293.36 C268.86,292.74 282.34,294.65 281.51,295.98 C281.24,296.42 281.58,297.22 282.26,297.78 C283.78,299.01 289.00,299.08 289.00,297.88 C289.00,297.39 289.45,297.00 290.00,297.00 C291.68,297.00 291.11,299.74 289.28,300.45 C287.80,301.01 287.77,301.24 289.03,302.04 C291.35,303.51 292.00,303.18 292.00,300.56 L 292.00 298.12 L 296.75 299.81 C303.85,302.34 314.03,308.10 317.49,311.56 C319.17,313.24 321.33,314.91 322.29,315.28 C323.26,315.65 324.34,316.75 324.71,317.73 C325.07,318.70 327.29,321.21 329.65,323.31 C333.89,327.08 344.00,343.45 344.00,346.55 C344.00,347.42 342.88,349.61 341.50,351.41 C340.12,353.21 339.00,355.18 339.00,355.79 C339.00,357.97 341.19,358.17 342.64,356.11 C344.80,353.02 346.34,353.52 347.81,357.75 C352.38,370.92 352.40,394.02 347.85,399.88 C346.83,401.20 346.00,403.09 346.00,404.09 C346.00,405.08 345.44,406.26 344.75,406.70 C344.06,407.14 343.50,409.30 343.50,411.50 C343.50,414.53 343.12,415.47 341.92,415.39 C340.79,415.31 340.46,415.93 340.76,417.53 C341.29,420.29 339.29,424.30 337.84,423.40 C336.42,422.52 335.03,424.87 335.02,428.20 C335.00,430.17 333.78,431.92 330.50,434.66 C328.02,436.73 326.00,439.01 326.00,439.73 C326.00,440.45 324.92,441.53 323.61,442.13 C322.30,442.73 320.64,444.30 319.94,445.61 C319.24,446.92 318.11,448.00 317.43,448.00 C316.75,448.00 314.32,449.56 312.04,451.47 C309.76,453.37 305.22,455.91 301.95,457.10 C298.68,458.29 296.00,459.63 296.00,460.08 C296.00,460.96 289.15,463.08 279.50,465.19 C274.76,466.23 253.40,466.47 177.50,466.36 C124.70,466.28 78.37,465.90 74.54,465.51 C61.95,464.24 58.39,466.73 57.31,477.50 C56.84,482.18 57.03,482.71 60.27,485.81 C63.21,488.64 64.58,489.18 69.44,489.47 C72.58,489.66 75.30,489.97 75.49,490.16 C76.39,491.05 267.88,489.94 271.69,489.01 ZM 425.00 125.49 C427.48,124.76 431.28,123.22 433.46,122.08 C435.64,120.94 437.94,120.00 438.57,120.00 C439.21,120.00 442.31,116.62 445.48,112.48 C448.65,108.35 451.91,104.59 452.73,104.13 C455.34,102.67 457.13,88.08 456.40,74.23 C456.05,67.49 455.36,61.72 454.88,61.43 C454.40,61.13 454.00,60.01 454.00,58.94 C454.00,57.87 453.62,57.11 453.17,57.25 C452.71,57.39 449.44,54.53 445.92,50.90 C437.36,42.11 432.98,39.53 423.08,37.52 C411.33,35.12 396.62,36.83 388.50,41.55 C382.97,44.76 374.70,53.67 371.77,59.57 C366.40,70.41 365.60,89.31 370.08,99.45 C379.61,120.99 402.94,132.05 425.00,125.49 ZM 433.81 501.83 C434.74,501.10 437.53,498.48 440.02,496.00 C442.51,493.52 446.78,489.60 449.52,487.27 C454.22,483.28 454.50,482.76 454.50,478.22 C454.50,474.06 453.96,472.79 450.50,468.74 C448.30,466.17 446.01,464.05 445.40,464.03 C444.80,464.01 443.45,463.05 442.40,461.88 C440.19,459.41 428.63,450.36 428.24,450.79 C428.10,450.96 426.38,450.79 424.43,450.42 C421.39,449.85 420.43,450.17 417.93,452.56 C415.59,454.81 415.00,456.23 415.00,459.61 C415.00,460.17 415.01,460.70 415.03,461.19 C415.07,462.77 415.10,463.93 414.60,464.79 C413.25,467.10 408.00,467.12 388.56,466.98 L 386.81 466.97 L 386.42 466.96 C384.23,466.95 381.87,466.93 379.33,466.91 L 344.92 466.70 L 342.16 469.35 C340.64,470.81 338.89,472.00 338.28,472.00 C337.67,472.00 336.87,473.81 336.49,476.03 C335.92,479.46 336.21,480.59 338.46,483.53 C339.91,485.44 341.64,487.06 342.30,487.12 C342.96,487.19 359.38,487.14 378.79,487.02 C398.19,486.89 413.98,487.17 413.86,487.64 C413.66,488.47 414.68,496.38 415.52,500.55 C415.75,501.68 417.41,503.30 419.20,504.15 C421.98,505.47 423.17,505.51 427.29,504.42 C429.94,503.72 432.87,502.55 433.81,501.83 ZM 61.00 491.98 C62.33,491.11 62.33,490.89 61.00,490.02 C60.17,489.47 58.80,489.02 57.95,489.02 C55.46,488.99 54.00,486.85 54.00,483.24 C54.00,481.26 53.59,480.13 53.00,480.50 C51.42,481.48 51.82,484.60 54.10,488.97 C56.20,493.00 58.15,493.85 61.00,491.98 ZM 347.85 461.11 C349.82,459.87 348.82,456.55 346.37,456.20 C343.96,455.85 342.53,459.13 344.32,460.92 C345.61,462.21 346.08,462.24 347.85,461.11 ZM 188.42 355.36 C188.97,353.90 186.71,349.00 185.48,349.00 C185.21,349.00 185.00,350.80 185.00,353.00 C185.00,357.16 187.15,358.65 188.42,355.36 ZM 430.64 278.69 C431.64,277.69 429.93,276.00 427.91,276.00 C426.82,276.00 425.68,276.67 425.36,277.49 C425.05,278.32 424.32,278.70 423.74,278.34 C423.14,277.97 422.99,278.17 423.39,278.82 C424.07,279.92 429.51,279.82 430.64,278.69 ZM 188.97 401.98 C187.58,401.12 184.79,401.79 185.35,402.85 C185.54,403.21 186.00,404.37 186.38,405.42 C187.04,407.26 187.14,407.24 188.67,405.06 C189.94,403.24 190.01,402.62 188.97,401.98 ZM 303.38 488.46 C303.71,487.58 303.32,486.68 302.47,486.35 C300.74,485.69 297.76,487.80 298.57,489.11 C299.47,490.56 302.74,490.12 303.38,488.46 ZM 342.26 403.40 C343.22,402.45 341.91,400.00 340.45,400.00 C338.78,400.00 337.68,401.68 338.50,403.00 C339.18,404.11 341.33,404.33 342.26,403.40 ZM 268.47 294.96 C268.12,294.39 265.87,294.02 263.47,294.14 C257.79,294.44 258.76,296.00 264.62,296.00 C267.48,296.00 268.88,295.62 268.47,294.96 ZM 171.43 152.33 C172.28,150.11 170.40,148.20 168.87,149.73 C167.64,150.96 168.35,154.00 169.86,154.00 C170.37,154.00 171.07,153.25 171.43,152.33 ZM 320.00 272.11 C320.00,271.07 319.33,269.95 318.50,269.64 C317.42,269.22 317.00,269.75 317.00,271.53 C317.00,273.06 317.57,274.00 318.50,274.00 C319.33,274.00 320.00,273.15 320.00,272.11 ZM 326.00 436.56 C326.00,435.77 325.55,434.84 325.00,434.50 C324.45,434.16 324.00,434.39 324.00,435.00 C324.00,435.61 323.55,435.84 323.00,435.50 C321.89,434.81 321.62,436.29 322.67,437.33 C323.86,438.53 326.00,438.03 326.00,436.56 ZM 285.61 494.47 C285.73,493.66 285.24,493.00 284.52,493.00 C282.79,493.00 281.78,495.75 283.31,496.30 C284.77,496.82 285.33,496.38 285.61,494.47 ZM 146.00 355.44 C146.00,354.65 145.32,354.00 144.50,354.00 C142.82,354.00 142.75,354.18 143.60,356.41 C144.31,358.24 146.00,357.56 146.00,355.44 ZM 68.30 128.51 C68.41,127.97 67.71,127.38 66.75,127.19 C65.66,126.98 65.00,127.47 65.00,128.50 C65.00,130.24 67.96,130.25 68.30,128.51 ZM 219.36 316.50 C219.05,315.67 218.36,315.00 217.83,315.00 C217.31,315.00 217.20,314.48 217.60,313.85 C218.04,313.13 217.87,312.96 217.15,313.41 C216.33,313.92 216.29,314.68 217.03,316.06 C218.25,318.33 220.21,318.70 219.36,316.50 ZM 176.00 459.00 C176.00,457.74 173.96,457.74 172.00,459.00 C170.83,459.76 171.11,459.97 173.25,459.98 C174.76,459.99 176.00,459.55 176.00,459.00 ZM 347.00 366.00 C347.00,365.45 346.33,365.00 345.50,365.00 C344.67,365.00 344.00,365.45 344.00,366.00 C344.00,366.55 344.67,367.00 345.50,367.00 C346.33,367.00 347.00,366.55 347.00,366.00 ZM 346.00 154.00 C346.00,153.45 345.55,153.00 345.00,153.00 C344.45,153.00 344.00,153.45 344.00,154.00 C344.00,154.55 344.45,155.00 345.00,155.00 C345.55,155.00 346.00,154.55 346.00,154.00 ZM 395.22 245.69 C396.52,246.82 397.11,247.00 398.78,247.00 C398.97,247.00 399.29,247.26 399.68,247.70 C398.92,246.92 398.28,246.82 397.60,247.25 C397.25,247.47 396.18,246.67 395.22,245.69 ZM 164.70 418.22 C165.68,421.17 166.41,422.72 167.30,424.12 C166.35,422.64 165.71,421.34 164.70,418.22 Z" fill="rgb(254,254,254)"/>
<path d="M 21.37 185.47 C26.16,172.59 33.20,162.62 44.08,153.01 C55.47,142.95 64.56,138.15 80.51,134.76 C78.46,135.22 77.19,135.60 77.00,135.85 C76.11,137.01 70.23,140.00 68.83,140.00 C66.88,140.00 60.79,143.41 55.44,147.49 C52.92,149.42 50.32,151.00 49.67,151.01 C47.13,151.03 32.00,166.96 32.00,169.61 C32.00,169.94 30.74,171.85 29.21,173.86 C27.67,175.86 25.88,178.74 25.23,180.25 C24.58,181.76 23.63,183.00 23.12,183.00 C22.65,183.00 22.06,183.82 21.37,185.47 ZM 164.91 431.13 C163.05,431.65 163.47,431.82 166.75,431.90 C171.40,432.01 171.54,431.87 169.84,428.71 C168.75,426.67 168.67,426.61 168.05,428.36 C168.33,427.03 168.13,425.43 167.30,424.12 C166.35,422.64 165.71,421.34 164.70,418.22 L 164.69 418.16 C165.07,419.20 165.61,420.00 165.97,420.00 C166.93,420.00 172.00,429.75 172.00,431.59 C172.00,432.50 170.89,433.00 168.87,433.00 C164.01,433.00 159.00,436.56 159.00,440.01 C159.00,441.99 159.62,443.06 161.00,443.50 C162.10,443.85 163.00,444.52 163.00,445.00 C163.00,445.48 164.01,446.19 165.25,446.58 C167.43,447.27 167.44,447.32 165.50,448.08 C165.06,448.25 164.74,448.39 164.54,448.50 C164.10,448.33 163.70,448.17 163.34,448.03 C159.50,446.57 157.52,442.39 158.41,437.61 C159.04,434.25 162.28,431.16 165.27,431.01 C165.15,431.05 165.03,431.09 164.91,431.13 ZM 163.99 343.28 C163.03,346.26 162.36,349.14 162.00,351.89 C161.54,355.41 160.72,358.56 160.18,358.89 C159.81,359.12 159.47,360.04 159.17,361.44 C159.57,358.81 160.06,356.31 160.64,354.00 C161.56,350.38 162.68,346.80 163.99,343.28 ZM 177.24 318.18 C184.70,307.59 193.93,298.43 204.24,291.67 C194.28,298.20 184.75,307.79 177.24,318.18 ZM 158.11 385.76 C158.22,387.80 158.38,389.72 158.60,391.39 C159.46,397.98 160.10,401.81 161.44,407.00 C161.29,406.44 161.13,405.85 160.96,405.25 C159.43,399.72 158.47,392.90 158.11,385.76 ZM 165.94 449.06 C166.97,449.31 168.43,449.87 169.64,450.49 C170.44,450.91 171.51,451.30 172.57,451.57 C171.54,451.32 170.49,450.99 169.65,450.62 C168.64,450.18 167.26,449.60 165.94,449.06 ZM 18.42 194.80 C17.60,197.87 17.15,199.86 17.10,201.37 C17.15,199.86 17.60,197.87 18.42,194.80 C18.58,194.20 18.74,193.61 18.91,193.02 C18.75,193.59 18.59,194.18 18.42,194.80 ZM 157.95 377.49 C157.93,379.50 157.95,381.53 158.01,383.48 C157.94,381.49 157.92,379.49 157.95,377.49 ZM 163.67 414.85 C163.90,415.59 164.13,416.37 164.38,417.18 C164.16,416.49 163.93,415.71 163.67,414.85 ZM 175.16 451.99 C175.22,451.99 175.28,451.99 175.35,451.99 C175.45,451.99 175.55,452.00 175.67,452.00 C175.61,452.00 175.55,452.00 175.50,452.00 C175.39,452.00 175.28,452.00 175.16,451.99 Z" fill="rgb(250,230,152)"/>
<path d="M 63.63 483.93 C60.52,481.48 60.07,476.36 62.62,472.46 L 64.23 470.00 L 167.50 470.00 C286.33,470.00 282.64,470.24 301.88,461.32 C312.40,456.44 320.03,450.97 328.86,441.96 C342.52,428.02 350.63,411.19 353.88,390.00 C357.27,367.89 348.74,339.70 333.00,321.05 C327.38,314.38 313.79,303.37 306.79,299.81 C294.00,293.30 276.97,289.01 263.92,289.00 C253.59,289.00 238.19,292.46 227.37,297.24 C216.42,302.06 207.78,308.09 198.79,317.19 C189.03,327.07 179.00,344.70 179.00,351.99 C179.00,355.76 177.56,359.72 175.70,361.09 C175.25,361.42 174.55,366.16 174.12,371.62 C173.23,383.12 174.69,397.40 177.12,401.08 C178.01,402.43 179.08,405.09 179.50,407.00 C180.40,411.11 182.77,415.00 184.37,415.00 C185.00,415.00 186.04,414.16 186.68,413.14 C189.57,408.51 200.29,410.34 201.64,415.68 C202.80,420.25 200.36,447.81 198.56,450.55 C196.15,454.23 190.05,455.45 183.54,453.55 C180.60,452.70 176.91,452.00 175.35,451.99 C173.78,451.99 171.21,451.32 169.64,450.49 C168.06,449.67 166.04,448.97 165.14,448.93 C163.89,448.88 163.98,448.67 165.50,448.08 C167.44,447.32 167.43,447.27 165.25,446.58 C164.01,446.19 163.00,445.48 163.00,445.00 C163.00,444.52 162.10,443.85 161.00,443.50 C159.62,443.06 159.00,441.99 159.00,440.01 C159.00,436.56 164.01,433.00 168.87,433.00 C170.89,433.00 172.00,432.50 172.00,431.59 C172.00,429.75 166.93,420.00 165.97,420.00 C165.57,420.00 164.93,418.99 164.55,417.75 C160.75,405.25 159.94,401.69 158.60,391.39 C157.19,380.67 158.19,360.12 160.18,358.89 C160.72,358.56 161.54,355.41 162.00,351.89 C164.57,332.23 183.47,305.29 204.24,291.67 C215.26,284.44 220.69,281.81 232.00,278.23 C245.33,274.01 256.43,272.59 269.60,273.39 C275.59,273.76 283.31,274.10 286.75,274.14 C291.13,274.20 293.00,274.61 293.00,275.50 C293.00,276.21 293.62,277.03 294.39,277.32 C295.32,277.67 295.63,277.29 295.33,276.15 C294.95,274.71 295.63,270.82 297.46,264.00 C298.61,259.70 302.53,253.65 308.50,247.00 C316.12,238.50 318.45,236.81 329.50,231.77 C344.68,224.84 362.04,224.58 377.29,231.06 C383.96,233.89 394.38,241.57 393.50,243.00 C393.04,243.74 396.88,247.71 397.60,247.25 C398.74,246.53 399.75,247.31 401.48,250.25 C402.54,252.04 404.21,254.37 405.20,255.44 C406.19,256.50 407.00,257.91 407.00,258.56 C407.00,259.82 411.93,269.15 413.04,270.00 C413.72,270.52 415.13,279.30 415.37,284.50 C415.50,287.31 415.76,287.50 419.50,287.51 C424.57,287.52 425.59,288.21 426.38,292.14 C426.81,294.32 426.48,296.15 425.34,297.91 C423.36,300.97 420.08,304.00 418.75,304.00 C418.23,304.00 416.53,305.24 414.98,306.75 C413.43,308.26 411.10,310.51 409.79,311.75 C406.46,314.92 402.44,314.65 399.17,311.04 C394.32,305.67 390.00,300.27 390.00,299.56 C390.00,299.18 388.88,297.39 387.50,295.59 C382.32,288.80 385.22,281.34 392.71,282.22 C395.40,282.54 396.84,282.21 397.67,281.09 C399.33,278.83 400.31,280.33 399.52,283.93 C398.86,286.92 396.74,288.01 395.50,286.00 C395.16,285.45 393.36,285.00 391.51,285.00 C385.13,285.00 385.93,290.59 393.59,299.55 C396.09,302.48 398.11,305.13 398.07,305.44 C397.85,307.21 398.25,307.98 400.64,310.36 C403.18,312.91 408.00,314.01 408.00,312.04 C408.00,310.96 416.46,302.00 417.48,302.00 C419.26,302.00 425.00,296.52 425.00,294.82 C425.00,291.08 423.03,288.77 420.41,289.43 C416.77,290.35 413.00,287.46 413.00,283.75 C413.00,279.28 410.84,272.85 409.51,273.36 C408.73,273.66 408.38,272.20 408.43,268.86 C408.47,266.15 408.01,263.61 407.40,263.21 C406.22,262.44 404.11,258.73 401.45,252.75 C400.20,249.93 399.19,249.00 397.39,249.00 C394.28,249.00 391.00,245.67 391.00,242.50 C391.00,241.06 390.42,240.00 389.65,240.00 C388.90,240.00 387.20,238.99 385.85,237.75 C384.51,236.51 382.10,235.34 380.49,235.15 C378.88,234.96 376.44,233.92 375.07,232.84 C373.43,231.55 371.77,231.09 370.20,231.49 C368.72,231.86 366.10,231.26 363.33,229.92 C359.76,228.19 357.90,227.89 354.17,228.44 C351.60,228.82 347.70,229.33 345.50,229.57 C335.45,230.68 330.55,232.31 327.19,235.67 C326.41,236.44 323.53,238.22 320.79,239.61 C314.46,242.81 310.03,247.24 307.11,253.26 C305.85,255.87 304.41,258.00 303.91,258.00 C303.41,258.00 303.00,258.60 303.00,259.33 C303.00,260.05 301.86,261.72 300.47,263.03 C298.52,264.86 298.07,266.04 298.53,268.12 C298.86,269.62 298.56,271.73 297.87,272.83 C295.40,276.78 301.07,279.64 306.07,276.96 C307.30,276.31 308.00,274.87 308.00,273.02 C308.00,271.43 308.36,269.89 308.81,269.62 C309.25,269.35 311.54,265.28 313.90,260.58 C317.00,254.41 319.13,251.46 321.59,249.94 C323.47,248.78 325.00,247.15 325.00,246.31 C325.00,245.20 325.65,244.95 327.39,245.38 C328.90,245.76 330.23,245.43 331.01,244.49 C331.69,243.67 332.88,243.00 333.66,243.00 C334.44,243.00 336.90,242.07 339.12,240.94 C341.77,239.59 344.11,239.08 345.91,239.48 C347.42,239.81 350.82,239.60 353.46,239.01 C357.32,238.14 359.62,238.26 365.16,239.61 C368.95,240.53 372.30,241.67 372.59,242.14 C372.88,242.61 374.43,243.00 376.04,243.00 C378.32,243.00 379.10,243.55 379.59,245.49 C380.04,247.31 381.28,248.30 384.21,249.18 C386.55,249.88 388.86,251.44 389.78,252.94 C390.66,254.35 392.27,256.52 393.37,257.76 C395.42,260.08 397.98,266.33 397.96,269.00 C397.95,270.79 394.38,266.54 393.39,263.57 C391.97,259.29 382.19,250.60 373.50,245.89 C371.85,245.00 367.34,243.55 363.48,242.67 C353.65,240.44 340.40,242.35 332.14,247.19 C320.89,253.79 311.74,265.62 309.21,276.82 C308.36,280.63 308.49,281.37 310.31,283.07 C311.45,284.13 312.76,285.00 313.23,285.00 C313.70,285.00 315.30,285.83 316.79,286.84 C318.28,287.85 322.42,290.62 326.00,292.99 C334.21,298.43 343.84,307.70 349.56,315.68 C352.00,319.08 354.00,322.09 354.00,322.38 C354.00,322.67 355.36,324.92 357.03,327.39 C360.44,332.44 364.68,342.98 366.33,350.50 C366.94,353.25 367.76,355.74 368.18,356.04 C368.59,356.33 369.53,358.13 370.28,360.04 C371.83,363.98 371.72,384.81 370.12,391.50 C369.59,393.70 368.64,398.20 368.00,401.50 C364.67,418.76 354.59,438.49 342.00,452.38 C336.92,457.98 324.91,467.61 319.32,470.55 C316.67,471.94 313.05,473.95 311.29,475.00 C305.58,478.40 291.76,482.71 281.21,484.38 C272.21,485.80 258.11,486.00 168.59,486.00 C66.59,486.00 66.26,485.99 63.63,483.93 ZM 164.91 431.13 C166.23,430.76 167.62,429.57 168.00,428.50 C168.66,426.61 168.72,426.61 169.84,428.71 C171.54,431.87 171.40,432.01 166.75,431.90 C163.47,431.82 163.05,431.65 164.91,431.13 ZM 307.00 260.50 C307.00,259.58 307.48,258.99 308.08,259.19 C308.67,259.39 309.15,259.98 309.15,260.50 C309.15,261.02 308.67,261.61 308.08,261.81 C307.48,262.01 307.00,261.42 307.00,260.50 ZM 314.69 252.36 C313.89,251.56 314.80,250.00 316.06,250.00 C316.58,250.00 317.00,250.68 317.00,251.50 C317.00,253.05 315.82,253.49 314.69,252.36 ZM 18.56 205.78 C16.64,203.04 16.62,201.52 18.42,194.80 C20.55,186.87 22.09,183.00 23.12,183.00 C23.63,183.00 24.58,181.76 25.23,180.25 C25.88,178.74 27.67,175.86 29.21,173.86 C30.74,171.85 32.00,169.94 32.00,169.61 C32.00,166.96 47.13,151.03 49.67,151.01 C50.32,151.00 52.92,149.42 55.44,147.49 C60.79,143.41 66.88,140.00 68.83,140.00 C70.23,140.00 76.11,137.01 77.00,135.85 C77.45,135.27 83.99,133.91 92.48,132.64 C98.26,131.77 118.67,133.82 126.09,136.01 C134.24,138.41 145.09,143.73 149.04,147.25 C150.43,148.49 152.23,149.64 153.04,149.82 C153.84,150.00 155.62,151.17 157.00,152.43 C158.38,153.68 160.30,154.99 161.27,155.33 C162.25,155.67 163.37,156.75 163.77,157.73 C165.02,160.77 172.24,171.00 173.14,171.00 C173.61,171.00 174.00,171.54 174.00,172.20 C174.00,172.85 175.06,174.54 176.36,175.95 C177.66,177.35 179.20,180.75 179.78,183.50 C180.36,186.25 181.63,191.56 182.59,195.29 C183.86,200.19 184.09,202.84 183.40,204.79 L 182.45 207.50 L 101.29 207.76 L 20.12 208.01 L 18.56 205.78 ZM 91.50 123.59 C73.59,119.51 59.74,103.52 58.35,85.30 C56.88,66.20 66.79,49.46 83.73,42.41 C89.72,39.92 91.77,39.59 101.52,39.55 C111.94,39.50 112.89,39.67 119.02,42.69 C135.60,50.87 143.76,65.30 142.82,84.79 C142.46,92.34 141.89,94.78 139.19,100.27 C134.38,110.04 123.84,119.52 114.07,122.85 C108.54,124.74 98.04,125.08 91.50,123.59 ZM 403.23 123.94 C398.16,122.94 388.69,118.01 384.50,114.19 C372.97,103.67 367.30,88.38 369.93,74.88 C372.78,60.22 380.79,49.58 393.61,43.42 C406.37,37.28 423.11,37.65 434.00,44.32 C442.70,49.65 450.02,58.51 452.55,66.75 C462.68,99.73 436.20,130.44 403.23,123.94 ZM 245.38 93.59 C234.53,90.95 224.10,82.35 218.00,71.00 C214.56,64.61 214.50,64.30 214.50,52.50 C214.50,41.17 214.67,40.14 217.58,34.00 C220.98,26.83 229.11,18.06 235.33,14.85 C240.15,12.37 253.16,9.00 257.95,9.00 C274.85,9.00 292.07,22.11 297.00,38.72 C300.11,49.21 299.52,61.87 295.52,70.24 C292.44,76.69 285.77,84.20 278.91,88.93 C270.94,94.44 256.93,96.39 245.38,93.59 Z" fill="rgb(246,102,114)"/>
<path d="M 63.63 483.93 C60.52,481.48 60.07,476.36 62.62,472.46 L 64.23 470.00 L 167.50 470.00 C286.33,470.00 282.64,470.24 301.88,461.32 C312.40,456.44 320.03,450.97 328.86,441.96 C342.52,428.02 350.63,411.19 353.88,390.00 C357.27,367.89 348.74,339.70 333.00,321.05 C327.38,314.38 313.79,303.37 306.79,299.81 C294.00,293.30 276.97,289.01 263.92,289.00 C253.59,289.00 238.19,292.46 227.37,297.24 C216.42,302.06 207.78,308.09 198.79,317.19 C189.03,327.07 179.00,344.70 179.00,351.99 C179.00,355.76 177.56,359.72 175.70,361.09 C175.25,361.42 174.55,366.16 174.12,371.62 C173.23,383.12 174.69,397.40 177.12,401.08 C178.01,402.43 179.08,405.09 179.50,407.00 C180.40,411.11 182.77,415.00 184.37,415.00 C185.00,415.00 186.04,414.16 186.68,413.14 C189.57,408.51 200.29,410.34 201.64,415.68 C202.80,420.25 200.36,447.81 198.56,450.55 C196.15,454.23 190.05,455.45 183.54,453.55 C180.60,452.70 176.91,452.00 175.35,451.99 C173.78,451.99 171.21,451.32 169.64,450.49 C168.06,449.67 166.04,448.97 165.14,448.93 C163.89,448.88 163.98,448.67 165.50,448.08 C167.44,447.32 167.43,447.27 165.25,446.58 C164.01,446.19 163.00,445.48 163.00,445.00 C163.00,444.52 162.10,443.85 161.00,443.50 C159.62,443.06 159.00,441.99 159.00,440.01 C159.00,436.56 164.01,433.00 168.87,433.00 C170.89,433.00 172.00,432.50 172.00,431.59 C172.00,429.75 166.93,420.00 165.97,420.00 C165.57,420.00 164.93,418.99 164.55,417.75 C160.75,405.25 159.94,401.69 158.60,391.39 C157.19,380.67 158.19,360.12 160.18,358.89 C160.72,358.56 161.54,355.41 162.00,351.89 C164.57,332.23 183.47,305.29 204.24,291.67 C215.26,284.44 220.69,281.81 232.00,278.23 C245.33,274.01 256.43,272.59 269.60,273.39 C275.59,273.76 283.31,274.10 286.75,274.14 C291.04,274.20 293.00,274.61 293.00,275.47 C293.00,276.66 304.40,281.00 307.52,281.00 C308.33,281.00 309.00,281.37 309.00,281.83 C309.00,282.29 310.24,283.29 311.75,284.07 C319.75,288.15 332.35,297.15 338.81,303.40 C344.27,308.67 354.00,320.83 354.00,322.38 C354.00,322.67 355.36,324.92 357.03,327.39 C360.44,332.44 364.68,342.98 366.33,350.50 C366.94,353.25 367.76,355.74 368.18,356.04 C368.59,356.33 369.53,358.13 370.28,360.04 C371.83,363.98 371.72,384.81 370.12,391.50 C369.59,393.70 368.64,398.20 368.00,401.50 C364.67,418.76 354.59,438.49 342.00,452.38 C336.92,457.98 324.91,467.61 319.32,470.55 C316.67,471.94 313.05,473.95 311.29,475.00 C305.58,478.40 291.76,482.71 281.21,484.38 C272.21,485.80 258.11,486.00 168.59,486.00 C66.59,486.00 66.26,485.99 63.63,483.93 ZM 164.91 431.13 C166.23,430.76 167.62,429.57 168.00,428.50 C168.66,426.61 168.72,426.61 169.84,428.71 C171.54,431.87 171.40,432.01 166.75,431.90 C163.47,431.82 163.05,431.65 164.91,431.13 ZM 397.18 282.33 C397.66,279.82 400.00,279.48 400.00,281.92 C400.00,283.14 399.35,284.00 398.43,284.00 C397.50,284.00 396.99,283.32 397.18,282.33 ZM 18.56 205.78 C16.64,203.04 16.62,201.52 18.42,194.80 C20.55,186.87 22.09,183.00 23.12,183.00 C23.63,183.00 24.58,181.76 25.23,180.25 C25.88,178.74 27.67,175.86 29.21,173.86 C30.74,171.85 32.00,169.94 32.00,169.61 C32.00,166.96 47.13,151.03 49.67,151.01 C50.32,151.00 52.92,149.42 55.44,147.49 C60.79,143.41 66.88,140.00 68.83,140.00 C70.23,140.00 76.11,137.01 77.00,135.85 C77.45,135.27 83.99,133.91 92.48,132.64 C98.26,131.77 118.67,133.82 126.09,136.01 C134.24,138.41 145.09,143.73 149.04,147.25 C150.43,148.49 152.23,149.64 153.04,149.82 C153.84,150.00 155.62,151.17 157.00,152.43 C158.38,153.68 160.30,154.99 161.27,155.33 C162.25,155.67 163.37,156.75 163.77,157.73 C165.02,160.77 172.24,171.00 173.14,171.00 C173.61,171.00 174.00,171.54 174.00,172.20 C174.00,172.85 175.06,174.54 176.36,175.95 C177.66,177.35 179.20,180.75 179.78,183.50 C180.36,186.25 181.63,191.56 182.59,195.29 C183.86,200.19 184.09,202.84 183.40,204.79 L 182.45 207.50 L 101.29 207.76 L 20.12 208.01 L 18.56 205.78 ZM 91.50 123.59 C73.59,119.51 59.74,103.52 58.35,85.30 C56.88,66.20 66.79,49.46 83.73,42.41 C89.72,39.92 91.77,39.59 101.52,39.55 C111.94,39.50 112.89,39.67 119.02,42.69 C135.60,50.87 143.76,65.30 142.82,84.79 C142.46,92.34 141.89,94.78 139.19,100.27 C134.38,110.04 123.84,119.52 114.07,122.85 C108.54,124.74 98.04,125.08 91.50,123.59 ZM 403.23 123.94 C398.16,122.94 388.69,118.01 384.50,114.19 C372.97,103.67 367.30,88.38 369.93,74.88 C372.78,60.22 380.79,49.58 393.61,43.42 C406.37,37.28 423.11,37.65 434.00,44.32 C442.70,49.65 450.02,58.51 452.55,66.75 C462.68,99.73 436.20,130.44 403.23,123.94 ZM 245.38 93.59 C234.53,90.95 224.10,82.35 218.00,71.00 C214.56,64.61 214.50,64.30 214.50,52.50 C214.50,41.17 214.67,40.14 217.58,34.00 C220.98,26.83 229.11,18.06 235.33,14.85 C240.15,12.37 253.16,9.00 257.95,9.00 C274.85,9.00 292.07,22.11 297.00,38.72 C300.11,49.21 299.52,61.87 295.52,70.24 C292.44,76.69 285.77,84.20 278.91,88.93 C270.94,94.44 256.93,96.39 245.38,93.59 Z" fill="rgb(244,218,203)"/>
<path d="M 63.63 483.93 C60.52,481.48 60.07,476.36 62.62,472.46 L 64.23 470.00 L 167.50 470.00 C286.33,470.00 282.64,470.24 301.88,461.32 C312.40,456.44 320.03,450.97 328.86,441.96 C342.52,428.02 350.63,411.19 353.88,390.00 C357.27,367.89 348.74,339.70 333.00,321.05 C327.38,314.38 313.79,303.37 306.79,299.81 C294.00,293.30 276.97,289.01 263.92,289.00 C253.59,289.00 238.19,292.46 227.37,297.24 C216.42,302.06 207.78,308.09 198.79,317.19 C189.03,327.07 179.00,344.70 179.00,351.99 C179.00,355.76 177.56,359.72 175.70,361.09 C175.25,361.42 174.55,366.16 174.12,371.62 C173.23,383.12 174.69,397.40 177.12,401.08 C178.01,402.43 179.08,405.09 179.50,407.00 C180.40,411.11 182.77,415.00 184.37,415.00 C185.00,415.00 186.04,414.16 186.68,413.14 C189.57,408.51 200.29,410.34 201.64,415.68 C202.80,420.25 200.36,447.81 198.56,450.55 C196.15,454.23 190.05,455.45 183.54,453.55 C180.60,452.70 176.91,452.00 175.35,451.99 C173.78,451.99 171.21,451.32 169.64,450.49 C168.06,449.67 166.04,448.97 165.14,448.93 C163.89,448.88 163.98,448.67 165.50,448.08 C167.44,447.32 167.43,447.27 165.25,446.58 C164.01,446.19 163.00,445.48 163.00,445.00 C163.00,444.52 162.10,443.85 161.00,443.50 C159.62,443.06 159.00,441.99 159.00,440.01 C159.00,436.56 164.01,433.00 168.87,433.00 C170.89,433.00 172.00,432.50 172.00,431.59 C172.00,429.75 166.93,420.00 165.97,420.00 C165.57,420.00 164.93,418.99 164.55,417.75 C160.75,405.25 159.94,401.69 158.60,391.39 C157.19,380.67 158.19,360.12 160.18,358.89 C160.72,358.56 161.54,355.41 162.00,351.89 C164.57,332.23 183.47,305.29 204.24,291.67 C215.26,284.44 220.69,281.81 232.00,278.23 C245.33,274.01 256.43,272.59 269.60,273.39 C275.59,273.76 283.31,274.10 286.75,274.14 C291.04,274.20 293.00,274.61 293.00,275.47 C293.00,276.66 304.40,281.00 307.52,281.00 C308.33,281.00 309.00,281.37 309.00,281.83 C309.00,282.29 310.24,283.29 311.75,284.07 C319.75,288.15 332.35,297.15 338.81,303.40 C344.27,308.67 354.00,320.83 354.00,322.38 C354.00,322.67 355.36,324.92 357.03,327.39 C360.44,332.44 364.68,342.98 366.33,350.50 C366.94,353.25 367.76,355.74 368.18,356.04 C368.59,356.33 369.53,358.13 370.28,360.04 C371.83,363.98 371.72,384.81 370.12,391.50 C369.59,393.70 368.64,398.20 368.00,401.50 C364.67,418.76 354.59,438.49 342.00,452.38 C336.92,457.98 324.91,467.61 319.32,470.55 C316.67,471.94 313.05,473.95 311.29,475.00 C305.58,478.40 291.76,482.71 281.21,484.38 C272.21,485.80 258.11,486.00 168.59,486.00 C66.59,486.00 66.26,485.99 63.63,483.93 ZM 164.91 431.13 C166.23,430.76 167.62,429.57 168.00,428.50 C168.66,426.61 168.72,426.61 169.84,428.71 C171.54,431.87 171.40,432.01 166.75,431.90 C163.47,431.82 163.05,431.65 164.91,431.13 ZM 397.18 282.33 C397.66,279.82 400.00,279.48 400.00,281.92 C400.00,283.14 399.35,284.00 398.43,284.00 C397.50,284.00 396.99,283.32 397.18,282.33 ZM 18.56 205.78 C16.64,203.04 16.62,201.52 18.42,194.80 C20.55,186.87 22.09,183.00 23.12,183.00 C23.63,183.00 24.58,181.76 25.23,180.25 C25.88,178.74 27.67,175.86 29.21,173.86 C30.74,171.85 32.00,169.94 32.00,169.61 C32.00,166.96 47.13,151.03 49.67,151.01 C50.32,151.00 52.92,149.42 55.44,147.49 C60.79,143.41 66.88,140.00 68.83,140.00 C70.23,140.00 76.11,137.01 77.00,135.85 C77.45,135.27 83.99,133.91 92.48,132.64 C98.26,131.77 118.67,133.82 126.09,136.01 C134.24,138.41 145.09,143.73 149.04,147.25 C150.43,148.49 152.23,149.64 153.04,149.82 C153.84,150.00 155.62,151.17 157.00,152.43 C158.38,153.68 160.30,154.99 161.27,155.33 C162.25,155.67 163.37,156.75 163.77,157.73 C165.02,160.77 172.24,171.00 173.14,171.00 C173.61,171.00 174.00,171.54 174.00,172.20 C174.00,172.85 175.06,174.54 176.36,175.95 C177.66,177.35 179.20,180.75 179.78,183.50 C180.36,186.25 181.63,191.56 182.59,195.29 C183.86,200.19 184.09,202.84 183.40,204.79 L 182.45 207.50 L 101.29 207.76 L 20.12 208.01 L 18.56 205.78 Z" fill="rgb(253,245,228)"/>
<path d="M 63.63 483.93 C60.52,481.48 60.07,476.36 62.62,472.46 L 64.23 470.00 L 167.50 470.00 C286.33,470.00 282.64,470.24 301.88,461.32 C312.40,456.44 320.03,450.97 328.86,441.96 C342.52,428.02 350.63,411.19 353.88,390.00 C357.27,367.89 348.74,339.70 333.00,321.05 C327.38,314.38 313.79,303.37 306.79,299.81 C294.00,293.30 276.97,289.01 263.92,289.00 C247.18,288.99 223.76,296.74 210.87,306.55 C192.76,320.33 178.85,341.68 175.39,361.00 C171.80,381.04 175.09,407.15 182.68,418.88 L 184.21 421.26 L 186.38 417.38 C188.27,414.00 189.07,413.46 192.58,413.20 C199.02,412.73 200.42,415.05 200.14,425.78 C199.86,436.84 198.31,446.86 196.43,449.73 C193.93,453.58 188.74,453.62 176.43,449.92 C174.74,449.42 172.58,449.00 171.63,449.00 C169.60,449.00 164.19,446.34 162.23,444.37 C161.47,443.62 160.44,443.00 159.93,443.00 C159.42,443.00 159.00,441.69 159.00,440.08 C159.00,436.56 163.96,433.00 168.87,433.00 C170.89,433.00 172.00,432.50 172.00,431.59 C172.00,429.75 166.93,420.00 165.97,420.00 C165.57,420.00 164.93,418.99 164.55,417.75 C160.75,405.25 159.94,401.69 158.60,391.39 C157.19,380.67 158.19,360.12 160.18,358.89 C160.72,358.56 161.54,355.41 162.00,351.89 C164.57,332.23 183.47,305.29 204.24,291.67 C218.67,282.20 230.73,277.36 247.02,274.49 C256.86,272.76 272.73,272.57 278.50,274.12 C280.70,274.70 286.09,275.86 290.48,276.68 C294.87,277.50 299.99,278.81 301.86,279.58 C303.72,280.36 306.09,281.00 307.12,281.00 C308.15,281.00 309.00,281.37 309.00,281.83 C309.00,282.29 310.24,283.29 311.75,284.07 C319.75,288.15 332.35,297.15 338.81,303.40 C344.27,308.67 354.00,320.83 354.00,322.38 C354.00,322.67 355.36,324.92 357.03,327.39 C360.77,332.93 364.56,342.80 367.26,354.00 C369.80,364.55 370.33,393.09 368.16,402.00 C363.51,421.01 354.23,438.88 342.00,452.38 C336.92,457.98 324.91,467.61 319.32,470.55 C316.67,471.94 313.05,473.95 311.29,475.00 C305.58,478.40 291.76,482.71 281.21,484.38 C272.21,485.80 258.11,486.00 168.59,486.00 C66.59,486.00 66.26,485.99 63.63,483.93 ZM 18.56 205.78 C16.64,203.04 16.62,201.52 18.42,194.80 C20.55,186.87 22.09,183.00 23.12,183.00 C23.63,183.00 24.58,181.76 25.23,180.25 C25.88,178.74 27.67,175.86 29.21,173.86 C30.74,171.85 32.00,169.94 32.00,169.61 C32.00,166.96 47.13,151.03 49.67,151.01 C50.32,151.00 52.92,149.42 55.44,147.49 C60.79,143.41 66.88,140.00 68.83,140.00 C70.23,140.00 76.11,137.01 77.00,135.85 C77.45,135.27 83.99,133.91 92.48,132.64 C94.12,132.39 100.72,132.56 107.15,133.01 C124.90,134.26 138.78,139.20 150.67,148.50 C157.57,153.90 174.00,171.11 174.00,172.94 C174.00,173.39 174.70,174.33 175.55,175.04 C176.40,175.74 176.85,176.95 176.56,177.71 C176.26,178.48 177.29,181.67 178.84,184.80 C182.61,192.41 184.63,201.30 183.40,204.81 L 182.45 207.50 L 101.29 207.76 L 20.12 208.01 L 18.56 205.78 Z" fill="rgb(253,224,120)"/>
</g>
</svg>