<?xml version="1.0" encoding="utf-8" ?><!-- created by svgstack.com | Attribution is required. --><svg xmlns="http://www.w3.org/2000/svg" xmlns:xlink="http://www.w3.org/1999/xlink" width="1024" height="1024"><path transform="scale(2 2)" d="M231.653 306.037C240.173 305.524 241.527 316.341 233.751 319.258C224.454 319.611 222.408 307.96 231.653 306.037ZM231.653 308.251C224.814 310.39 227.785 318.813 233.751 317.216L235.934 315.754C236.503 314.753 237.046 313.79 237.446 312.704C236.504 309.434 235.244 307.775 231.653 308.251Z"/><path transform="scale(2 2)" d="M386.016 375.258L389.998 375.258L389.998 410.751C388.674 410.814 387.341 410.766 386.016 410.751L386.016 375.258Z"/><path transform="scale(2 2)" d="M238.243 191.383C246.563 190.473 248.688 202.091 239.982 204.745C230.871 204.975 229.103 193.578 238.243 191.383ZM238.243 193.318C232.009 195.478 233.93 203.533 239.982 202.614C245.475 200.423 244.42 193.41 238.243 193.318Z"/><path transform="scale(2 2)" d="M304.441 101.544C316.718 100.612 318.976 117.67 307.046 119.922C296.026 122.736 291.193 104.2 304.441 101.544Z"/><path transform="scale(2 2)" d="M293.588 383.384L297.44 383.384C301.545 413.199 341.464 414.197 346.386 383.384L350.378 383.384C350.421 384.917 350.406 386.443 350.378 387.977C348.001 392.813 347.059 396.457 343.328 400.692C326.617 419.657 294.601 408.162 293.588 383.384Z"/><path transform="scale(2 2)" d="M336.777 102.399C353.6 101.312 366.089 109.061 375.956 122.486C398.55 123.11 412.746 149.067 406.051 151.966C404.624 151.566 400.654 141.098 397.946 137.733C391.888 129.948 382.861 126.606 373.175 126.226C363.827 109.98 346.177 102.422 327.918 107.953C324.562 108.969 321.367 110.556 318.083 111.791L318.083 107.647C323.541 104.329 330.49 102.954 336.777 102.399Z"/><path transform="scale(2 2)" d="M197.763 329.308C202.94 329.216 207.835 332.746 209.649 337.554C215.162 352.169 191.294 362.704 185.619 342.304C178.493 342.373 171.368 342.208 164.242 342.304L163.911 342.38C161.002 350.037 153.392 349.56 150.669 341.364C151.606 337.22 153.011 335.778 157.235 334.566C160.74 335.466 162.509 336.518 163.447 340.254L185.619 340.254C187.568 333.715 190.726 330.355 197.763 329.308ZM156.047 336.79C150.42 339.908 152.995 346.64 158.088 345.602C163.889 343.508 162.629 336.143 156.047 336.79Z"/><path transform="scale(2 2)" d="M217.797 336.087C219.049 336.6 220.16 337.418 221.23 338.23C213.87 350.114 211.355 363.797 221.065 375.486C228.107 383.964 235.19 385.105 245.479 386.021C250.14 367.531 271.234 374.079 270.19 387.977C267.608 401.799 248.965 402.462 246.7 390.002C215.625 390.673 201.286 361.764 217.797 336.087Z"/><path transform="scale(2 2)" d="M195.959 164.097C201.64 163.319 207.684 166.22 211.149 170.641C220.833 183 209.403 199.372 194.665 197.128C187.725 196.071 184.898 192.014 181.033 186.681C178.383 186.74 175.715 186.673 173.062 186.681L167.872 186.681C166.74 189.114 165.565 190.66 163.447 192.28C146.192 195.282 156.72 167.559 167.872 184.5L181.033 184.5C179.284 174.124 185.426 165.41 195.959 164.097ZM159.503 181.929C153.404 183.815 156.34 191.963 162.409 190.429C168.094 187.935 165.882 180.546 159.503 181.929Z"/><path transform="scale(2 2)" d="M275.133 105.257C278.406 104.983 297.297 106.825 292.815 111.758C290.588 114.209 269.81 100.07 253.035 121.591C249.038 126.718 250.885 129.495 243.587 127.301C232.98 124.112 223.491 129.665 216.773 137.733C217.161 139.102 217.462 140.508 217.797 141.891C233.086 141.678 248.405 141.897 263.699 141.89L280.128 141.853C282.269 141.844 289.684 140.522 289.99 143.622L289.602 144.047C286.465 145.07 272.838 144.487 268.508 144.487L229.116 144.494L217.797 144.494C213.8 155.314 201.352 155.06 197.763 144.494C188.16 144.112 178.333 144.434 168.711 144.494C164.201 154.355 152.848 148.814 155.117 140.735C156.939 134.248 165.196 134.647 168.711 141.891C172.552 141.89 195.604 142.356 197.163 141.721C198.754 141.073 199.978 126.987 214.75 135.125C221.201 123.71 234.686 120.598 246.7 123.85C252.939 113.459 263.109 106.919 275.133 105.257ZM159.503 137.733C155.826 141.886 156.281 149.513 163.447 147.52C169.439 143.237 165.381 138.193 159.503 137.733Z"/><path transform="scale(2 2)" d="M195.004 209.923C201.296 209.742 207.58 210.156 213.872 209.923C213.646 217.026 213.864 224.212 213.865 231.323L213.872 273.379C224.759 273.407 224.007 274.799 233.751 269.076L233.751 281.641C230.843 279.649 227.912 277.688 225.138 275.509C221.392 275.426 217.619 275.44 213.872 275.509L213.868 298C213.852 302.446 213.711 306.892 213.872 311.337L181.033 311.337C181.34 302.764 181.043 294.079 181.033 285.495L181.033 275.509C178.345 275.218 175.749 275.36 173.062 275.509C165.918 284.328 158.032 276.586 161.426 270.592C164.311 265.496 171.193 267.534 172.338 272.705C173.458 273.75 179.115 273.212 181.033 273.379L181.033 232.377C176.653 232.233 172.254 232.341 167.872 232.377C166.342 240.895 156.424 243.977 151.942 236.762C146.158 227.449 160.509 216.849 167.872 230.251C172.253 230.225 176.658 230.468 181.033 230.251C181.181 223.487 181.036 216.69 181.033 209.923C185.688 209.855 190.348 209.911 195.004 209.923ZM165.666 269.076C161.319 271.544 161.16 277.689 167.264 277.515C172.353 275.255 171.105 270.048 165.666 269.076ZM231.653 273.379C230.153 273.673 228.894 274.02 227.614 274.899C228.083 275.263 228.607 275.762 229.116 276.056C232.495 278.086 232.963 274.908 231.653 273.379Z"/><path transform="scale(2 2)" d="M105.129 161.972C119.7 160.165 134.084 167.727 138.922 181.83C140.737 187.122 141.119 192.96 141.958 198.477L154.247 276.97C156.039 288.418 157.559 299.912 159.503 311.337C148.672 310.992 137.722 311.339 126.875 311.337C125.058 303.192 124.144 293.795 123.174 285.495L109.092 285.495L89.6339 285.495C87.9809 293.99 86.01 302.731 85.1916 311.337C75.1209 311.128 64.9761 311.223 54.9025 311.337C56.329 293.696 61.5944 270.809 64.5661 252.718L72.333 206.716C76.1568 184.129 76.4062 163.428 105.129 161.972ZM105.129 189.434C103.211 196.004 102.49 203.249 101.255 209.998L92.6245 259.801L107.66 259.801C111.705 259.856 115.722 260.017 119.765 259.801C119.708 256.355 118.995 252.821 118.512 249.407L115.998 231.712C114.012 217.669 112.598 203.377 110.008 189.434C108.362 189.265 106.776 189.344 105.129 189.434Z"/><path transform="scale(2 2)" d="M358.202 149.311C368.656 148.655 376.802 154.522 380.874 164.097C395.138 154.241 413.314 166.247 417.332 181.929C430.744 186.487 436.613 196.849 436.921 210.886C446.646 218.97 452.695 228.128 449.548 241.447C450.269 243.218 451.674 244.843 452.746 246.434C469.676 271.555 439.119 301.718 417.552 296.201C415.468 295.667 410.755 293.178 408.896 293.482C404.536 294.197 404.616 298.028 408.741 300.368C417.635 305.411 425.709 303.757 434.966 301.256C436.768 310.985 432.106 319.21 423.836 324.355C427.671 338.314 417.801 350.096 403.963 351.046C396.068 368.714 371.728 372.575 361.85 352.292C348.864 349.505 346.603 338.836 347.62 327.097C349.907 327.177 352.149 325.971 351.121 323.332C350.481 321.686 347.948 322.117 347.54 320.757C346.688 317.919 347.567 274.183 347.62 269.076C357.256 290.858 382.997 273.869 376.181 268.317C371.663 264.636 370.272 272.519 363.94 273.26C358.513 273.894 354.485 270.411 354.148 265.007C353.603 256.277 360.133 257.04 362.53 253.889C365.05 250.577 361.429 248.023 358.232 248.828C353.169 250.102 350.039 254.325 347.62 258.572C347.889 256.267 347.703 253.88 347.669 251.56L347.617 200.717C347.616 195.29 347.086 188.931 347.968 183.64C350.804 166.636 371.611 166.938 372.087 178.652C372.343 184.944 364.935 183.633 361.29 187.629C351.266 198.623 363.842 215.536 368.172 209.052C371.01 204.8 360.307 201.245 366.631 191.383C378.244 189.15 377.872 180.317 385.632 182.499C392.286 184.371 390.391 190.772 393.412 192.525C402.708 197.921 398.237 170.001 378.433 176.126C373.697 160.931 358.609 160.889 347.62 169.919C346.733 161.255 340.229 162.101 340.373 169.919C328.774 160.064 316.183 162.393 309.959 176.126C288.134 170.703 286.217 199.29 295.415 192.489C298.048 190.543 296.192 186.532 298.991 184.526C307.406 178.498 309.202 184.799 314.482 188.483C318.424 191.234 322.015 190.798 322.479 196.53C323.015 203.147 315.544 205.35 318.957 209.145C325.203 216.089 337.731 192.318 321.298 184.145C320.282 183.64 318.89 183.483 318.105 182.667C312.156 176.487 326.619 161.684 337.381 176.413C341.184 181.616 340.389 187.943 340.379 194.006L340.358 239.648C340.381 246.981 340.765 254.754 339.637 262.002C339.266 260.374 338.855 258.826 338.268 257.262C333.163 248.326 321.184 245.321 323.408 252.882C324.13 255.34 338.308 258.854 331.667 269.873C326.139 279.043 318.154 269.975 314.831 267.98C310.814 265.568 305.186 272.661 317.377 278.502C327.711 283.453 336.044 277.168 340.373 267.818C340.763 283.697 340.988 302.561 340.378 318.407C340.226 322.357 339.899 320.507 337.511 322.881C334.524 325.849 338.923 326.475 340.245 327.657C342.48 339.626 337.962 347.793 326.754 352.292C323.836 357.127 322.241 360.662 317.017 363.559C304.388 370.56 292.814 364.01 286.349 352.292L285.603 352.175C268.734 349.51 261.557 340.094 264.479 323.005C255.617 317.179 254.324 308.871 255.227 298.692C258.207 304.35 262.269 307.789 267.454 311.337C272.397 302.332 274.072 305.347 279.656 300.679C283.182 293.575 269.727 298.197 263.661 294.453C258.085 291.011 259.041 286.547 251.584 281.811C241.535 275.429 240.858 255.107 252.516 253.263C253.887 253.228 255.25 253.187 256.62 253.263C256.74 261.972 264.611 268.309 273.006 268.475L273.372 268.48L273.42 268.962C271.649 272.299 270.882 275.858 270.86 279.617C271.792 281.028 273.067 282.479 274.917 282.466C280.119 280.499 274.948 266.971 291.376 262.56C293.588 261.966 295.775 262.425 297.953 261.979C300.994 261.355 301.84 257.027 298.877 255.634C293.402 253.061 283.143 259.447 278.038 261.116C272.999 262.764 261.864 260.268 263.546 254.318C264.501 250.942 268.73 251.032 271.051 249.425C273.804 247.519 271.094 238.563 259.433 247.809C251.677 244.167 248.585 232.68 255.307 226.607C259.857 222.497 269.891 222.214 275.788 222.652C292.165 223.871 289.94 240.115 291.846 242.153C293.319 243.73 296.04 243.638 297.392 241.932C298.762 240.206 297.566 234.566 297.44 232.377C300.228 225.445 307.056 222.89 314.054 225.891C322.633 229.57 318.367 237.422 320.918 240.86C327.745 250.063 334.279 219.009 307.046 217.437C306.541 215.012 303.289 198.091 297.302 204.676C295.676 206.464 299.806 215.382 300.12 219.885C297.561 221.754 295.553 223.403 293.588 225.894C288.202 218.241 279.517 214.489 270.19 216.317C264.05 196.146 277.947 199.27 281.761 195.055C289.953 186.002 255.873 187.626 263.17 216.317C247.323 220.354 239.816 231.372 247.912 246.391C245.373 247.353 243.599 248.462 241.508 250.205C239.235 246.012 236.401 239.184 238.243 234.637C235.615 233.507 227.576 228.226 229.323 224.481L229.893 224.351C230.883 224.584 231.608 225.279 232.393 225.894C234.591 222.222 237.279 221.4 241.508 222.001C243.643 215.97 248.675 213.179 253.816 209.923C254.987 196.047 260.681 185.481 275.133 181.929C276.088 164.622 292.658 157.131 307.852 161.972C315.103 145.157 330.797 147.608 343.223 157C348.01 153.312 352.145 150.364 358.202 149.311ZM413.768 192.28C408.254 195.362 413.078 198.165 416.281 200.538C420.643 203.77 419.838 208.916 419.699 213.691C409.662 214.312 403.413 217.853 396.385 224.735C392.852 221.254 389.808 219.349 385.275 217.437C386.652 211.381 393.146 208.468 390.807 204.972C386.296 198.232 379.184 213.064 378.433 217.437C372.625 219.292 366.682 221.961 363.801 227.745C362.003 231.353 359.878 245.433 366.653 241.59C368.931 240.298 368.462 236.69 368.667 234.505C369.994 220.34 391.68 220.831 393.061 234.626C393.301 237.021 392.342 241.839 395.29 242.886C401.104 244.951 400.113 235.214 399.187 232.377C408.124 217.609 434.535 216.77 437.971 232.339C439.728 240.297 434.356 248.085 425.967 246.431C423.613 245.967 413.979 242.298 416.135 249.396C417.631 254.324 424.939 248.803 423.836 257.262C419.806 261.796 413.713 260.759 408.285 261.751C405.624 259.936 385.199 248.213 388.374 258.812C389.164 261.449 393.907 261.749 396.112 262.504C409.488 267.08 407.733 280.426 411.739 282.165C420.346 285.902 413.7 270.033 412.655 267.818C422.519 268.957 430.572 263.635 430.674 253.263C433.574 252.588 436.117 251.498 438.789 250.205C449.271 254.713 445.852 269.558 438.965 275.883C436.974 277.711 430.853 280.528 431.909 283.78C432.738 286.33 435.488 286.461 437.579 285.514C452.934 278.566 458.743 253.263 443.11 244.712C449.156 228.924 441.123 219.095 426.751 214.57C426.807 206.708 424.425 191.954 413.768 192.28ZM389.998 284.691C380.274 300.566 376.325 294.478 363.527 292.168C361.795 292.794 359.15 294.132 360.116 296.392C362.041 300.896 373.026 298.905 377.658 308.563C384.202 322.207 371.086 322.906 369.899 325.702C367.674 330.94 376.58 330.015 378.433 334.566C383.167 341.263 377.581 343.163 378.143 347.504C384.579 356.262 392.476 335.713 380.874 327.097C387.873 319.666 386.312 309.063 380.874 301.256C386.03 299.109 392.483 295.621 394.669 290.079C396.081 286.5 393.348 284.612 389.998 284.691ZM294.329 286.513C286.758 291.636 301.995 300.238 306.398 301.256C301.548 310.279 299.954 319.39 307.046 327.509C300.418 334.154 297.489 344.559 307.046 350.287C308.025 349.959 309.011 349.651 309.959 349.239C312.585 344.151 305.278 340.484 309.959 333.655L310.221 333.405C313.523 330.297 319.646 331.246 319.839 326.937C320.028 322.683 314.76 324.056 312.355 324.355C297.922 303.647 325.949 299.805 326.968 296.328C329.311 288.325 313.856 296.303 308.478 295.222C300.413 293.602 299.303 286.042 294.329 286.513ZM394.584 315.754C391.151 317.047 389.264 321.661 394.189 322.505C416.273 326.29 398.527 335.036 407.579 338.23C417.456 335.207 412.096 315.464 394.584 315.754ZM288.169 315.754C268.615 321.722 276.426 343.831 283.643 336.087C283.91 333.859 283.261 332.647 282.249 330.71C283.885 318.456 294.161 326.865 295.491 320.635C296.347 316.624 290.899 316.146 288.169 315.754ZM238.243 223.497C231.591 225.205 233.652 232.383 239.982 232.377C245.741 230.061 244.104 223.475 238.243 223.497ZM357.335 308.251C353.536 310.742 354.556 315.553 359.562 315.361C363.748 312.763 362.292 308.542 357.335 308.251ZM329.229 308.251C325.507 310.636 325.946 315.202 330.969 315.361C335.218 313.225 334.146 308.55 329.229 308.251Z"/></svg> 