<?xml version="1.0" standalone="no"?>
<!DOCTYPE svg PUBLIC "-//W3C//DTD SVG 20010904//EN"
 "http://www.w3.org/TR/2001/REC-SVG-20010904/DTD/svg10.dtd">
<svg version="1.0" xmlns="http://www.w3.org/2000/svg"
 width="668.000000pt" height="445.000000pt" viewBox="0 0 668.000000 445.000000"
 preserveAspectRatio="xMidYMid meet">
<metadata>
Created by potrace 1.16, written by Peter Selinger 2001-2019
</metadata>
<g transform="translate(0.000000,445.000000) scale(0.100000,-0.100000)"
fill="#000000" stroke="none">
<path d="M1114 3796 c-17 -8 -34 -21 -38 -31 -3 -9 -6 -489 -6 -1066 l0 -1050
25 -24 24 -25 471 0 471 0 -3 -142 -3 -143 -92 -3 -93 -3 0 40 c0 22 -4 43
-10 46 -5 3 -10 35 -10 71 l0 64 -234 0 c-177 0 -237 -3 -243 -12 -10 -17 -5
-830 6 -841 4 -4 111 -6 237 -5 l229 3 3 258 2 257 850 0 850 0 0 -188 c0
-154 3 -192 16 -210 l15 -22 -65 0 c-36 0 -67 -4 -71 -10 -10 -16 21 -75 51
-95 28 -19 56 -20 994 -23 531 -2 984 0 1008 3 53 8 100 48 108 93 l7 32 -69
0 c-53 0 -65 3 -56 12 9 9 12 161 12 624 0 544 -2 614 -16 628 -14 14 -76 16
-535 16 l-519 0 0 170 0 170 535 0 c522 0 535 0 555 20 19 19 20 33 20 551 0
346 -4 537 -10 550 -10 18 -27 19 -555 19 l-545 0 0 114 c0 97 -3 117 -19 137
l-19 24 -1624 2 c-1347 2 -1628 0 -1654 -11z m3245 -74 c5 -10 7 -55 4 -100
l-6 -82 -95 0 c-88 0 -94 1 -89 19 4 18 -2 19 -112 18 -96 -2 -116 -5 -116
-17 0 -20 94 -27 106 -8 7 11 9 11 9 0 0 -7 5 -10 10 -7 15 9 12 -4 -5 -21
-13 -13 -15 -79 -15 -470 0 -301 -3 -453 -10 -449 -5 3 -10 -3 -10 -14 0 -12
5 -21 10 -21 6 0 10 -22 10 -50 0 -27 -4 -50 -10 -50 -18 0 -10 -26 16 -51 24
-23 31 -24 167 -24 l142 0 -1 -27 c0 -16 -1 -93 -2 -172 l-2 -145 -412 -4
c-528 -6 -496 -4 -501 -31 l-4 -21 -7 21 c-7 18 -16 21 -72 21 -60 1 -64 -1
-64 -22 0 -21 5 -23 50 -23 31 0 50 5 50 12 0 7 3 7 8 -2 5 -7 29 -12 63 -11
30 1 60 1 67 0 9 -1 12 -40 12 -161 l0 -160 -1200 0 -1200 0 -10 25 c-13 35
-13 2000 0 2026 11 19 39 19 1610 19 1525 0 1600 -1 1609 -18z m1099 -266 c3
-6 8 -225 10 -488 3 -367 1 -482 -8 -493 -10 -13 -104 -15 -671 -15 -520 0
-660 3 -664 12 -2 7 -6 226 -9 486 -5 334 -3 479 5 493 11 21 14 21 671 18
424 -2 662 -7 666 -13z m-35 -1783 c4 -166 4 -420 0 -564 l-8 -263 -29 -7
c-15 -4 -320 -8 -677 -9 l-649 -1 0 36 c0 29 4 35 23 36 l22 2 -22 4 c-13 2
-23 9 -23 14 0 5 49 9 110 9 61 0 110 3 110 8 0 4 -49 6 -110 4 -71 -2 -110 0
-110 7 0 6 44 12 113 14 l112 3 -117 2 -118 2 0 -70 0 -70 -193 0 c-139 0
-198 4 -210 13 -16 11 -17 54 -15 572 l3 560 195 5 c107 3 508 3 890 0 l695
-5 8 -302z m-1873 -218 l0 -145 -55 0 -55 0 0 145 0 145 55 0 55 0 0 -145z
m-1715 -350 l0 -330 -222 -3 -223 -2 0 334 0 335 223 -2 222 -2 0 -330z"/>
<path d="M1506 2744 c-19 -18 -21 -65 -4 -82 9 -9 77 -12 245 -12 219 0 233 1
243 19 15 29 12 56 -8 74 -16 15 -48 17 -240 17 -187 0 -223 -2 -236 -16z"/>
<path d="M1910 1825 l0 -135 205 0 205 0 0 135 0 135 -205 0 -205 0 0 -135z
m390 -55 l0 -70 -185 0 -185 0 -1 53 c0 28 -2 60 -4 70 -3 16 11 17 186 17
l189 0 0 -70z"/>
<path d="M3837 1434 c-4 -4 -7 -18 -7 -31 l0 -24 138 3 137 3 0 25 0 25 -131
3 c-71 1 -133 -1 -137 -4z"/>
</g>
</svg>
